<svg xmlns="http://www.w3.org/2000/svg" xmlns:xlink="http://www.w3.org/1999/xlink" id="body_1" preserveAspectRatio="xMinYMin meet" viewBox="0 0 793 1121"><defs><clipPath id="1"><path id="" clip-rule="evenodd" transform="matrix(1 0 0 1 0 0)" d="M0 841L0 -0.8900146L0 -0.8900146L595.28 -0.8900146L595.28 -0.8900146L595.28 841L595.28 841L0 841z" /></clipPath><clipPath id="2"><path id="" clip-rule="evenodd" transform="matrix(1 0 0 1 0 0)" d="M566.9296 91.23602C 566.9296 59.92462 541.5474 34.54242 510.236 34.54242C 478.9246 34.54242 453.5424 59.92462 453.5424 91.23602C 453.5424 122.5474 478.9246 147.9296 510.236 147.9296C 541.5474 147.9296 566.9296 122.5474 566.9296 91.23602z" /></clipPath></defs><g transform="matrix(1.333333 0 0 1.333333 0 0)"><g clip-path="url(#1)"><g clip-path="url(#2)"><g transform="matrix(0.08300962 0 0 0.08300961 453.5383 25.82788)"><g transform="matrix(1 0 0 1 0 0)"><image x="0" y="0" xlink:href="img_01.png" width="1366" height="1576" /></g></g></g><path id="153" transform="matrix(1 0 0 -1 0 841)" d="M374.173 654.659L566.929 654.659" stroke="#3E0097" stroke-width="1.9925" fill="none" /><path id="235" transform="matrix(1 0 0 -1 0 841)" d="M374.173 515.556L566.929 515.556" stroke="#3E0097" stroke-width="1.9925" fill="none" /><path id="305" transform="matrix(1 0 0 -1 0 841)" d="M374.173 378.047L566.929 378.047" stroke="#3E0097" stroke-width="1.9925" fill="none" /><path id="345" transform="matrix(1 0 0 -1 0 841)" d="M374.173 298.171L566.929 298.171" stroke="#3E0097" stroke-width="1.9925" fill="none" /><path id="346" transform="matrix(1 0 0 -1 0 841)" d="M393.5526 286.3606L378.3574 286.3606C 376.1565 286.3606 374.3723 284.5765 374.3723 282.3755L374.3723 282.3755L374.3723 274.8835C 374.3723 272.6826 376.1565 270.8984 378.3574 270.8984L378.3574 270.8984L393.5526 270.8984C 395.7535 270.8984 397.5377 272.6826 397.5377 274.8835L397.5377 274.8835L397.5377 282.3755C 397.5377 284.5765 395.7535 286.3606 393.5526 286.3606z" stroke="#D1D1D1" stroke-width="0.3985" fill="none" /><path id="350" transform="matrix(1 0 0 -1 0 841)" d="M433.0964 286.3606L406.4256 286.3606C 404.2246 286.3606 402.4405 284.5765 402.4405 282.3755L402.4405 282.3755L402.4405 274.8835C 402.4405 272.6826 404.2246 270.8984 406.4256 270.8984L406.4256 270.8984L433.0964 270.8984C 435.2973 270.8984 437.0815 272.6826 437.0815 274.8835L437.0815 274.8835L437.0815 282.3755C 437.0815 284.5765 435.2973 286.3606 433.0964 286.3606z" stroke="#D1D1D1" stroke-width="0.3985" fill="none" /><path id="356" transform="matrix(1 0 0 -1 0 841)" d="M483.9791 286.3606L445.9689 286.3606C 443.7679 286.3606 441.9838 284.5765 441.9838 282.3755L441.9838 282.3755L441.9838 274.8835C 441.9838 272.6826 443.7679 270.8984 445.9689 270.8984L445.9689 270.8984L483.9791 270.8984C 486.1801 270.8984 487.9642 272.6826 487.9642 274.8835L487.9642 274.8835L487.9642 282.3755C 487.9642 284.5765 486.1801 286.3606 483.9791 286.3606z" stroke="#D1D1D1" stroke-width="0.3985" fill="none" /><path id="364" transform="matrix(1 0 0 -1 0 841)" d="M527.2254 286.3606L496.8526 286.3606C 494.6517 286.3606 492.8675 284.5765 492.8675 282.3755L492.8675 282.3755L492.8675 274.8835C 492.8675 272.6826 494.6517 270.8984 496.8526 270.8984L496.8526 270.8984L527.2254 270.8984C 529.4263 270.8984 531.2105 272.6826 531.2105 274.8835L531.2105 274.8835L531.2105 282.3755C 531.2105 284.5765 529.4263 286.3606 527.2254 286.3606z" stroke="#D1D1D1" stroke-width="0.3985" fill="none" /><path id="371" transform="matrix(1 0 0 -1 0 841)" d="M401.9542 269.5036L378.3578 269.5036C 376.1569 269.5036 374.3727 267.7195 374.3727 265.5185L374.3727 265.5185L374.3727 258.0265C 374.3727 255.8256 376.1569 254.0414 378.3578 254.0414L378.3578 254.0414L401.9542 254.0414C 404.1552 254.0414 405.9393 255.8256 405.9393 258.0265L405.9393 258.0265L405.9393 265.5185C 405.9393 267.7195 404.1552 269.5036 401.9542 269.5036z" stroke="#D1D1D1" stroke-width="0.3985" fill="none" /><path id="377" transform="matrix(1 0 0 -1 0 841)" d="M449.5533 269.5036L414.8267 269.5036C 412.6257 269.5036 410.8416 267.7195 410.8416 265.5185L410.8416 265.5185L410.8416 258.0265C 410.8416 255.8256 412.6257 254.0414 414.8267 254.0414L414.8267 254.0414L449.5533 254.0414C 451.7543 254.0414 453.5384 255.8256 453.5384 258.0265L453.5384 258.0265L453.5384 265.5185C 453.5384 267.7195 451.7543 269.5036 449.5533 269.5036z" stroke="#D1D1D1" stroke-width="0.3985" fill="none" /><path id="384" transform="matrix(1 0 0 -1 0 841)" d="M489.846 269.5036L462.426 269.5036C 460.2251 269.5036 458.4409 267.7195 458.4409 265.5185L458.4409 265.5185L458.4409 258.0265C 458.4409 255.8256 460.2251 254.0414 462.426 254.0414L462.426 254.0414L489.846 254.0414C 492.0469 254.0414 493.8311 255.8256 493.8311 258.0265L493.8311 258.0265L493.8311 265.5185C 493.8311 267.7195 492.0469 269.5036 489.846 269.5036z" stroke="#D1D1D1" stroke-width="0.3985" fill="none" /><path id="393" transform="matrix(1 0 0 -1 0 841)" d="M452.1128 252.6466L378.3572 252.6466C 376.1563 252.6466 374.3721 250.8625 374.3721 248.6615L374.3721 248.6615L374.3721 241.1695C 374.3721 238.9686 376.1563 237.1844 378.3572 237.1844L378.3572 237.1844L452.1128 237.1844C 454.3137 237.1844 456.0979 238.9686 456.0979 241.1695L456.0979 241.1695L456.0979 248.6615C 456.0979 250.8625 454.3137 252.6466 452.1128 252.6466z" stroke="#D1D1D1" stroke-width="0.3985" fill="none" /><path id="409" transform="matrix(1 0 0 -1 0 841)" d="M374.173 226.699L376.552 226.699" stroke="#D1D1D1" stroke-width="0.5978" fill="none" /><path id="410" transform="matrix(1 0 0 -1 0 841)" d="M378.931 226.699L381.309 226.699" stroke="#D1D1D1" stroke-width="0.5978" fill="none" /><path id="411" transform="matrix(1 0 0 -1 0 841)" d="M383.688 226.699L386.067 226.699" stroke="#D1D1D1" stroke-width="0.5978" fill="none" /><path id="412" transform="matrix(1 0 0 -1 0 841)" d="M388.446 226.699L390.825 226.699" stroke="#D1D1D1" stroke-width="0.5978" fill="none" /><path id="413" transform="matrix(1 0 0 -1 0 841)" d="M393.203 226.699L395.582 226.699" stroke="#D1D1D1" stroke-width="0.5978" fill="none" /><path id="414" transform="matrix(1 0 0 -1 0 841)" d="M397.961 226.699L400.34 226.699" stroke="#D1D1D1" stroke-width="0.5978" fill="none" /><path id="415" transform="matrix(1 0 0 -1 0 841)" d="M402.718 226.699L405.097 226.699" stroke="#D1D1D1" stroke-width="0.5978" fill="none" /><path id="416" transform="matrix(1 0 0 -1 0 841)" d="M407.476 226.699L409.855 226.699" stroke="#D1D1D1" stroke-width="0.5978" fill="none" /><path id="417" transform="matrix(1 0 0 -1 0 841)" d="M412.234 226.699L414.612 226.699" stroke="#D1D1D1" stroke-width="0.5978" fill="none" /><path id="418" transform="matrix(1 0 0 -1 0 841)" d="M416.991 226.699L419.37 226.699" stroke="#D1D1D1" stroke-width="0.5978" fill="none" /><path id="419" transform="matrix(1 0 0 -1 0 841)" d="M421.749 226.699L424.127 226.699" stroke="#D1D1D1" stroke-width="0.5978" fill="none" /><path id="420" transform="matrix(1 0 0 -1 0 841)" d="M426.506 226.699L428.885 226.699" stroke="#D1D1D1" stroke-width="0.5978" fill="none" /><path id="421" transform="matrix(1 0 0 -1 0 841)" d="M431.264 226.699L433.643 226.699" stroke="#D1D1D1" stroke-width="0.5978" fill="none" /><path id="422" transform="matrix(1 0 0 -1 0 841)" d="M436.021 226.699L438.4 226.699" stroke="#D1D1D1" stroke-width="0.5978" fill="none" /><path id="423" transform="matrix(1 0 0 -1 0 841)" d="M440.779 226.699L443.158 226.699" stroke="#D1D1D1" stroke-width="0.5978" fill="none" /><path id="424" transform="matrix(1 0 0 -1 0 841)" d="M445.536 226.699L447.915 226.699" stroke="#D1D1D1" stroke-width="0.5978" fill="none" /><path id="425" transform="matrix(1 0 0 -1 0 841)" d="M450.294 226.699L452.673 226.699" stroke="#D1D1D1" stroke-width="0.5978" fill="none" /><path id="426" transform="matrix(1 0 0 -1 0 841)" d="M455.052 226.699L457.43 226.699" stroke="#D1D1D1" stroke-width="0.5978" fill="none" /><path id="427" transform="matrix(1 0 0 -1 0 841)" d="M459.809 226.699L462.188 226.699" stroke="#D1D1D1" stroke-width="0.5978" fill="none" /><path id="428" transform="matrix(1 0 0 -1 0 841)" d="M464.567 226.699L466.945 226.699" stroke="#D1D1D1" stroke-width="0.5978" fill="none" /><path id="429" transform="matrix(1 0 0 -1 0 841)" d="M469.324 226.699L471.703 226.699" stroke="#D1D1D1" stroke-width="0.5978" fill="none" /><path id="430" transform="matrix(1 0 0 -1 0 841)" d="M474.082 226.699L476.46 226.699" stroke="#D1D1D1" stroke-width="0.5978" fill="none" /><path id="431" transform="matrix(1 0 0 -1 0 841)" d="M478.839 226.699L481.218 226.699" stroke="#D1D1D1" stroke-width="0.5978" fill="none" /><path id="432" transform="matrix(1 0 0 -1 0 841)" d="M483.597 226.699L485.976 226.699" stroke="#D1D1D1" stroke-width="0.5978" fill="none" /><path id="433" transform="matrix(1 0 0 -1 0 841)" d="M488.354 226.699L490.733 226.699" stroke="#D1D1D1" stroke-width="0.5978" fill="none" /><path id="434" transform="matrix(1 0 0 -1 0 841)" d="M493.112 226.699L495.491 226.699" stroke="#D1D1D1" stroke-width="0.5978" fill="none" /><path id="435" transform="matrix(1 0 0 -1 0 841)" d="M497.869 226.699L500.248 226.699" stroke="#D1D1D1" stroke-width="0.5978" fill="none" /><path id="436" transform="matrix(1 0 0 -1 0 841)" d="M502.627 226.699L505.006 226.699" stroke="#D1D1D1" stroke-width="0.5978" fill="none" /><path id="437" transform="matrix(1 0 0 -1 0 841)" d="M507.385 226.699L509.763 226.699" stroke="#D1D1D1" stroke-width="0.5978" fill="none" /><path id="438" transform="matrix(1 0 0 -1 0 841)" d="M512.142 226.699L514.521 226.699" stroke="#D1D1D1" stroke-width="0.5978" fill="none" /><path id="439" transform="matrix(1 0 0 -1 0 841)" d="M516.9 226.699L519.278 226.699" stroke="#D1D1D1" stroke-width="0.5978" fill="none" /><path id="440" transform="matrix(1 0 0 -1 0 841)" d="M521.657 226.699L524.036 226.699" stroke="#D1D1D1" stroke-width="0.5978" fill="none" /><path id="441" transform="matrix(1 0 0 -1 0 841)" d="M526.415 226.699L528.794 226.699" stroke="#D1D1D1" stroke-width="0.5978" fill="none" /><path id="442" transform="matrix(1 0 0 -1 0 841)" d="M531.172 226.699L533.551 226.699" stroke="#D1D1D1" stroke-width="0.5978" fill="none" /><path id="443" transform="matrix(1 0 0 -1 0 841)" d="M535.93 226.699L538.309 226.699" stroke="#D1D1D1" stroke-width="0.5978" fill="none" /><path id="444" transform="matrix(1 0 0 -1 0 841)" d="M540.687 226.699L543.066 226.699" stroke="#D1D1D1" stroke-width="0.5978" fill="none" /><path id="445" transform="matrix(1 0 0 -1 0 841)" d="M545.445 226.699L547.824 226.699" stroke="#D1D1D1" stroke-width="0.5978" fill="none" /><path id="446" transform="matrix(1 0 0 -1 0 841)" d="M550.202 226.699L552.581 226.699" stroke="#D1D1D1" stroke-width="0.5978" fill="none" /><path id="447" transform="matrix(1 0 0 -1 0 841)" d="M554.96 226.699L557.339 226.699" stroke="#D1D1D1" stroke-width="0.5978" fill="none" /><path id="448" transform="matrix(1 0 0 -1 0 841)" d="M559.718 226.699L562.096 226.699" stroke="#D1D1D1" stroke-width="0.5978" fill="none" /><path id="449" transform="matrix(1 0 0 -1 0 841)" d="M409.2211 215.5857L378.3569 215.5857C 376.156 215.5857 374.3718 213.8015 374.3718 211.6006L374.3718 211.6006L374.3718 204.1086C 374.3718 201.9076 376.156 200.1234 378.3569 200.1234L378.3569 200.1234L409.2211 200.1234C 411.422 200.1234 413.2062 201.9076 413.2062 204.1086L413.2062 204.1086L413.2062 211.6006C 413.2062 213.8015 411.422 215.5857 409.2211 215.5857z" stroke="#D1D1D1" stroke-width="0.3985" fill="none" /><path id="455" transform="matrix(1 0 0 -1 0 841)" d="M452.0339 215.5857L422.0941 215.5857C 419.8931 215.5857 418.109 213.8015 418.109 211.6006L418.109 211.6006L418.109 204.1086C 418.109 201.9076 419.8931 200.1234 422.0941 200.1234L422.0941 200.1234L452.0339 200.1234C 454.2349 200.1234 456.019 201.9076 456.019 204.1086L456.019 204.1086L456.019 211.6006C 456.019 213.8015 454.2349 215.5857 452.0339 215.5857z" stroke="#D1D1D1" stroke-width="0.3985" fill="none" /><path id="462" transform="matrix(1 0 0 -1 0 841)" d="M477.7813 215.5857L464.9066 215.5857C 462.7057 215.5857 460.9215 213.8015 460.9215 211.6006L460.9215 211.6006L460.9215 204.1086C 460.9215 201.9076 462.7057 200.1234 464.9066 200.1234L464.9066 200.1234L477.7813 200.1234C 479.9823 200.1234 481.7665 201.9076 481.7665 204.1086L481.7665 204.1086L481.7665 211.6006C 481.7665 213.8015 479.9823 215.5857 477.7813 215.5857z" stroke="#D1D1D1" stroke-width="0.3985" fill="none" /><path id="465" transform="matrix(1 0 0 -1 0 841)" d="M533.4757 215.5857L490.6543 215.5857C 488.4533 215.5857 486.6692 213.8015 486.6692 211.6006L486.6692 211.6006L486.6692 204.1086C 486.6692 201.9076 488.4533 200.1234 490.6543 200.1234L490.6543 200.1234L533.4757 200.1234C 535.6766 200.1234 537.4608 201.9076 537.4608 204.1086L537.4608 204.1086L537.4608 211.6006C 537.4608 213.8015 535.6766 215.5857 533.4757 215.5857z" stroke="#D1D1D1" stroke-width="0.3985" fill="none" /><path id="482" transform="matrix(1 0 0 -1 0 841)" d="M374.173 157.011L566.929 157.011" stroke="#3E0097" stroke-width="1.9925" fill="none" /><path id="603" transform="matrix(1 0 0 -1 0 841)" d="M28.346 651.072L340.157 651.072" stroke="#3E0097" stroke-width="1.9925" fill="none" /><path id="780" transform="matrix(1 0 0 -1 0 841)" d="M28.346 485.767L30.725 485.767" stroke="#D1D1D1" stroke-width="0.5978" fill="none" /><path id="781" transform="matrix(1 0 0 -1 0 841)" d="M33.104 485.767L35.483 485.767" stroke="#D1D1D1" stroke-width="0.5978" fill="none" /><path id="782" transform="matrix(1 0 0 -1 0 841)" d="M37.862 485.767L40.24 485.767" stroke="#D1D1D1" stroke-width="0.5978" fill="none" /><path id="783" transform="matrix(1 0 0 -1 0 841)" d="M42.619 485.767L44.998 485.767" stroke="#D1D1D1" stroke-width="0.5978" fill="none" /><path id="784" transform="matrix(1 0 0 -1 0 841)" d="M47.377 485.767L49.755 485.767" stroke="#D1D1D1" stroke-width="0.5978" fill="none" /><path id="785" transform="matrix(1 0 0 -1 0 841)" d="M52.134 485.767L54.513 485.767" stroke="#D1D1D1" stroke-width="0.5978" fill="none" /><path id="786" transform="matrix(1 0 0 -1 0 841)" d="M56.892 485.767L59.271 485.767" stroke="#D1D1D1" stroke-width="0.5978" fill="none" /><path id="787" transform="matrix(1 0 0 -1 0 841)" d="M61.649 485.767L64.028 485.767" stroke="#D1D1D1" stroke-width="0.5978" fill="none" /><path id="788" transform="matrix(1 0 0 -1 0 841)" d="M66.407 485.767L68.786 485.767" stroke="#D1D1D1" stroke-width="0.5978" fill="none" /><path id="789" transform="matrix(1 0 0 -1 0 841)" d="M71.164 485.767L73.543 485.767" stroke="#D1D1D1" stroke-width="0.5978" fill="none" /><path id="790" transform="matrix(1 0 0 -1 0 841)" d="M75.922 485.767L78.301 485.767" stroke="#D1D1D1" stroke-width="0.5978" fill="none" /><path id="791" transform="matrix(1 0 0 -1 0 841)" d="M80.68 485.767L83.058 485.767" stroke="#D1D1D1" stroke-width="0.5978" fill="none" /><path id="792" transform="matrix(1 0 0 -1 0 841)" d="M85.437 485.767L87.816 485.767" stroke="#D1D1D1" stroke-width="0.5978" fill="none" /><path id="793" transform="matrix(1 0 0 -1 0 841)" d="M90.195 485.767L92.573 485.767" stroke="#D1D1D1" stroke-width="0.5978" fill="none" /><path id="794" transform="matrix(1 0 0 -1 0 841)" d="M94.952 485.767L97.331 485.767" stroke="#D1D1D1" stroke-width="0.5978" fill="none" /><path id="795" transform="matrix(1 0 0 -1 0 841)" d="M99.71 485.767L102.088 485.767" stroke="#D1D1D1" stroke-width="0.5978" fill="none" /><path id="796" transform="matrix(1 0 0 -1 0 841)" d="M104.467 485.767L106.846 485.767" stroke="#D1D1D1" stroke-width="0.5978" fill="none" /><path id="797" transform="matrix(1 0 0 -1 0 841)" d="M109.225 485.767L111.604 485.767" stroke="#D1D1D1" stroke-width="0.5978" fill="none" /><path id="798" transform="matrix(1 0 0 -1 0 841)" d="M113.982 485.767L116.361 485.767" stroke="#D1D1D1" stroke-width="0.5978" fill="none" /><path id="799" transform="matrix(1 0 0 -1 0 841)" d="M118.74 485.767L121.119 485.767" stroke="#D1D1D1" stroke-width="0.5978" fill="none" /><path id="800" transform="matrix(1 0 0 -1 0 841)" d="M123.497 485.767L125.876 485.767" stroke="#D1D1D1" stroke-width="0.5978" fill="none" /><path id="801" transform="matrix(1 0 0 -1 0 841)" d="M128.255 485.767L130.634 485.767" stroke="#D1D1D1" stroke-width="0.5978" fill="none" /><path id="802" transform="matrix(1 0 0 -1 0 841)" d="M133.013 485.767L135.391 485.767" stroke="#D1D1D1" stroke-width="0.5978" fill="none" /><path id="803" transform="matrix(1 0 0 -1 0 841)" d="M137.77 485.767L140.149 485.767" stroke="#D1D1D1" stroke-width="0.5978" fill="none" /><path id="804" transform="matrix(1 0 0 -1 0 841)" d="M142.528 485.767L144.906 485.767" stroke="#D1D1D1" stroke-width="0.5978" fill="none" /><path id="805" transform="matrix(1 0 0 -1 0 841)" d="M147.285 485.767L149.664 485.767" stroke="#D1D1D1" stroke-width="0.5978" fill="none" /><path id="806" transform="matrix(1 0 0 -1 0 841)" d="M152.043 485.767L154.422 485.767" stroke="#D1D1D1" stroke-width="0.5978" fill="none" /><path id="807" transform="matrix(1 0 0 -1 0 841)" d="M156.8 485.767L159.179 485.767" stroke="#D1D1D1" stroke-width="0.5978" fill="none" /><path id="808" transform="matrix(1 0 0 -1 0 841)" d="M161.558 485.767L163.937 485.767" stroke="#D1D1D1" stroke-width="0.5978" fill="none" /><path id="809" transform="matrix(1 0 0 -1 0 841)" d="M166.315 485.767L168.694 485.767" stroke="#D1D1D1" stroke-width="0.5978" fill="none" /><path id="810" transform="matrix(1 0 0 -1 0 841)" d="M171.073 485.767L173.452 485.767" stroke="#D1D1D1" stroke-width="0.5978" fill="none" /><path id="811" transform="matrix(1 0 0 -1 0 841)" d="M175.83 485.767L178.209 485.767" stroke="#D1D1D1" stroke-width="0.5978" fill="none" /><path id="812" transform="matrix(1 0 0 -1 0 841)" d="M180.588 485.767L182.967 485.767" stroke="#D1D1D1" stroke-width="0.5978" fill="none" /><path id="813" transform="matrix(1 0 0 -1 0 841)" d="M185.346 485.767L187.724 485.767" stroke="#D1D1D1" stroke-width="0.5978" fill="none" /><path id="814" transform="matrix(1 0 0 -1 0 841)" d="M190.103 485.767L192.482 485.767" stroke="#D1D1D1" stroke-width="0.5978" fill="none" /><path id="815" transform="matrix(1 0 0 -1 0 841)" d="M194.861 485.767L197.239 485.767" stroke="#D1D1D1" stroke-width="0.5978" fill="none" /><path id="816" transform="matrix(1 0 0 -1 0 841)" d="M199.618 485.767L201.997 485.767" stroke="#D1D1D1" stroke-width="0.5978" fill="none" /><path id="817" transform="matrix(1 0 0 -1 0 841)" d="M204.376 485.767L206.755 485.767" stroke="#D1D1D1" stroke-width="0.5978" fill="none" /><path id="818" transform="matrix(1 0 0 -1 0 841)" d="M209.133 485.767L211.512 485.767" stroke="#D1D1D1" stroke-width="0.5978" fill="none" /><path id="819" transform="matrix(1 0 0 -1 0 841)" d="M213.891 485.767L216.27 485.767" stroke="#D1D1D1" stroke-width="0.5978" fill="none" /><path id="820" transform="matrix(1 0 0 -1 0 841)" d="M218.648 485.767L221.027 485.767" stroke="#D1D1D1" stroke-width="0.5978" fill="none" /><path id="821" transform="matrix(1 0 0 -1 0 841)" d="M223.406 485.767L225.785 485.767" stroke="#D1D1D1" stroke-width="0.5978" fill="none" /><path id="822" transform="matrix(1 0 0 -1 0 841)" d="M228.164 485.767L230.542 485.767" stroke="#D1D1D1" stroke-width="0.5978" fill="none" /><path id="823" transform="matrix(1 0 0 -1 0 841)" d="M232.921 485.767L235.3 485.767" stroke="#D1D1D1" stroke-width="0.5978" fill="none" /><path id="824" transform="matrix(1 0 0 -1 0 841)" d="M237.679 485.767L240.057 485.767" stroke="#D1D1D1" stroke-width="0.5978" fill="none" /><path id="825" transform="matrix(1 0 0 -1 0 841)" d="M242.436 485.767L244.815 485.767" stroke="#D1D1D1" stroke-width="0.5978" fill="none" /><path id="826" transform="matrix(1 0 0 -1 0 841)" d="M247.194 485.767L249.573 485.767" stroke="#D1D1D1" stroke-width="0.5978" fill="none" /><path id="827" transform="matrix(1 0 0 -1 0 841)" d="M251.951 485.767L254.33 485.767" stroke="#D1D1D1" stroke-width="0.5978" fill="none" /><path id="828" transform="matrix(1 0 0 -1 0 841)" d="M256.709 485.767L259.088 485.767" stroke="#D1D1D1" stroke-width="0.5978" fill="none" /><path id="829" transform="matrix(1 0 0 -1 0 841)" d="M261.466 485.767L263.845 485.767" stroke="#D1D1D1" stroke-width="0.5978" fill="none" /><path id="830" transform="matrix(1 0 0 -1 0 841)" d="M266.224 485.767L268.603 485.767" stroke="#D1D1D1" stroke-width="0.5978" fill="none" /><path id="831" transform="matrix(1 0 0 -1 0 841)" d="M270.981 485.767L273.36 485.767" stroke="#D1D1D1" stroke-width="0.5978" fill="none" /><path id="832" transform="matrix(1 0 0 -1 0 841)" d="M275.739 485.767L278.118 485.767" stroke="#D1D1D1" stroke-width="0.5978" fill="none" /><path id="833" transform="matrix(1 0 0 -1 0 841)" d="M280.497 485.767L282.875 485.767" stroke="#D1D1D1" stroke-width="0.5978" fill="none" /><path id="834" transform="matrix(1 0 0 -1 0 841)" d="M285.254 485.767L287.633 485.767" stroke="#D1D1D1" stroke-width="0.5978" fill="none" /><path id="835" transform="matrix(1 0 0 -1 0 841)" d="M290.012 485.767L292.39 485.767" stroke="#D1D1D1" stroke-width="0.5978" fill="none" /><path id="836" transform="matrix(1 0 0 -1 0 841)" d="M294.769 485.767L297.148 485.767" stroke="#D1D1D1" stroke-width="0.5978" fill="none" /><path id="837" transform="matrix(1 0 0 -1 0 841)" d="M299.527 485.767L301.906 485.767" stroke="#D1D1D1" stroke-width="0.5978" fill="none" /><path id="838" transform="matrix(1 0 0 -1 0 841)" d="M304.284 485.767L306.663 485.767" stroke="#D1D1D1" stroke-width="0.5978" fill="none" /><path id="839" transform="matrix(1 0 0 -1 0 841)" d="M309.042 485.767L311.421 485.767" stroke="#D1D1D1" stroke-width="0.5978" fill="none" /><path id="840" transform="matrix(1 0 0 -1 0 841)" d="M313.799 485.767L316.178 485.767" stroke="#D1D1D1" stroke-width="0.5978" fill="none" /><path id="841" transform="matrix(1 0 0 -1 0 841)" d="M318.557 485.767L320.936 485.767" stroke="#D1D1D1" stroke-width="0.5978" fill="none" /><path id="842" transform="matrix(1 0 0 -1 0 841)" d="M323.315 485.767L325.693 485.767" stroke="#D1D1D1" stroke-width="0.5978" fill="none" /><path id="843" transform="matrix(1 0 0 -1 0 841)" d="M328.072 485.767L330.451 485.767" stroke="#D1D1D1" stroke-width="0.5978" fill="none" /><path id="844" transform="matrix(1 0 0 -1 0 841)" d="M332.83 485.767L335.208 485.767" stroke="#D1D1D1" stroke-width="0.5978" fill="none" /><path id="950" transform="matrix(1 0 0 -1 0 841)" d="M28.346 335.406L30.725 335.406" stroke="#D1D1D1" stroke-width="0.5978" fill="none" /><path id="951" transform="matrix(1 0 0 -1 0 841)" d="M33.104 335.406L35.483 335.406" stroke="#D1D1D1" stroke-width="0.5978" fill="none" /><path id="952" transform="matrix(1 0 0 -1 0 841)" d="M37.862 335.406L40.24 335.406" stroke="#D1D1D1" stroke-width="0.5978" fill="none" /><path id="953" transform="matrix(1 0 0 -1 0 841)" d="M42.619 335.406L44.998 335.406" stroke="#D1D1D1" stroke-width="0.5978" fill="none" /><path id="954" transform="matrix(1 0 0 -1 0 841)" d="M47.377 335.406L49.755 335.406" stroke="#D1D1D1" stroke-width="0.5978" fill="none" /><path id="955" transform="matrix(1 0 0 -1 0 841)" d="M52.134 335.406L54.513 335.406" stroke="#D1D1D1" stroke-width="0.5978" fill="none" /><path id="956" transform="matrix(1 0 0 -1 0 841)" d="M56.892 335.406L59.271 335.406" stroke="#D1D1D1" stroke-width="0.5978" fill="none" /><path id="957" transform="matrix(1 0 0 -1 0 841)" d="M61.649 335.406L64.028 335.406" stroke="#D1D1D1" stroke-width="0.5978" fill="none" /><path id="958" transform="matrix(1 0 0 -1 0 841)" d="M66.407 335.406L68.786 335.406" stroke="#D1D1D1" stroke-width="0.5978" fill="none" /><path id="959" transform="matrix(1 0 0 -1 0 841)" d="M71.164 335.406L73.543 335.406" stroke="#D1D1D1" stroke-width="0.5978" fill="none" /><path id="960" transform="matrix(1 0 0 -1 0 841)" d="M75.922 335.406L78.301 335.406" stroke="#D1D1D1" stroke-width="0.5978" fill="none" /><path id="961" transform="matrix(1 0 0 -1 0 841)" d="M80.68 335.406L83.058 335.406" stroke="#D1D1D1" stroke-width="0.5978" fill="none" /><path id="962" transform="matrix(1 0 0 -1 0 841)" d="M85.437 335.406L87.816 335.406" stroke="#D1D1D1" stroke-width="0.5978" fill="none" /><path id="963" transform="matrix(1 0 0 -1 0 841)" d="M90.195 335.406L92.573 335.406" stroke="#D1D1D1" stroke-width="0.5978" fill="none" /><path id="964" transform="matrix(1 0 0 -1 0 841)" d="M94.952 335.406L97.331 335.406" stroke="#D1D1D1" stroke-width="0.5978" fill="none" /><path id="965" transform="matrix(1 0 0 -1 0 841)" d="M99.71 335.406L102.088 335.406" stroke="#D1D1D1" stroke-width="0.5978" fill="none" /><path id="966" transform="matrix(1 0 0 -1 0 841)" d="M104.467 335.406L106.846 335.406" stroke="#D1D1D1" stroke-width="0.5978" fill="none" /><path id="967" transform="matrix(1 0 0 -1 0 841)" d="M109.225 335.406L111.604 335.406" stroke="#D1D1D1" stroke-width="0.5978" fill="none" /><path id="968" transform="matrix(1 0 0 -1 0 841)" d="M113.982 335.406L116.361 335.406" stroke="#D1D1D1" stroke-width="0.5978" fill="none" /><path id="969" transform="matrix(1 0 0 -1 0 841)" d="M118.74 335.406L121.119 335.406" stroke="#D1D1D1" stroke-width="0.5978" fill="none" /><path id="970" transform="matrix(1 0 0 -1 0 841)" d="M123.497 335.406L125.876 335.406" stroke="#D1D1D1" stroke-width="0.5978" fill="none" /><path id="971" transform="matrix(1 0 0 -1 0 841)" d="M128.255 335.406L130.634 335.406" stroke="#D1D1D1" stroke-width="0.5978" fill="none" /><path id="972" transform="matrix(1 0 0 -1 0 841)" d="M133.013 335.406L135.391 335.406" stroke="#D1D1D1" stroke-width="0.5978" fill="none" /><path id="973" transform="matrix(1 0 0 -1 0 841)" d="M137.77 335.406L140.149 335.406" stroke="#D1D1D1" stroke-width="0.5978" fill="none" /><path id="974" transform="matrix(1 0 0 -1 0 841)" d="M142.528 335.406L144.906 335.406" stroke="#D1D1D1" stroke-width="0.5978" fill="none" /><path id="975" transform="matrix(1 0 0 -1 0 841)" d="M147.285 335.406L149.664 335.406" stroke="#D1D1D1" stroke-width="0.5978" fill="none" /><path id="976" transform="matrix(1 0 0 -1 0 841)" d="M152.043 335.406L154.422 335.406" stroke="#D1D1D1" stroke-width="0.5978" fill="none" /><path id="977" transform="matrix(1 0 0 -1 0 841)" d="M156.8 335.406L159.179 335.406" stroke="#D1D1D1" stroke-width="0.5978" fill="none" /><path id="978" transform="matrix(1 0 0 -1 0 841)" d="M161.558 335.406L163.937 335.406" stroke="#D1D1D1" stroke-width="0.5978" fill="none" /><path id="979" transform="matrix(1 0 0 -1 0 841)" d="M166.315 335.406L168.694 335.406" stroke="#D1D1D1" stroke-width="0.5978" fill="none" /><path id="980" transform="matrix(1 0 0 -1 0 841)" d="M171.073 335.406L173.452 335.406" stroke="#D1D1D1" stroke-width="0.5978" fill="none" /><path id="981" transform="matrix(1 0 0 -1 0 841)" d="M175.83 335.406L178.209 335.406" stroke="#D1D1D1" stroke-width="0.5978" fill="none" /><path id="982" transform="matrix(1 0 0 -1 0 841)" d="M180.588 335.406L182.967 335.406" stroke="#D1D1D1" stroke-width="0.5978" fill="none" /><path id="983" transform="matrix(1 0 0 -1 0 841)" d="M185.346 335.406L187.724 335.406" stroke="#D1D1D1" stroke-width="0.5978" fill="none" /><path id="984" transform="matrix(1 0 0 -1 0 841)" d="M190.103 335.406L192.482 335.406" stroke="#D1D1D1" stroke-width="0.5978" fill="none" /><path id="985" transform="matrix(1 0 0 -1 0 841)" d="M194.861 335.406L197.239 335.406" stroke="#D1D1D1" stroke-width="0.5978" fill="none" /><path id="986" transform="matrix(1 0 0 -1 0 841)" d="M199.618 335.406L201.997 335.406" stroke="#D1D1D1" stroke-width="0.5978" fill="none" /><path id="987" transform="matrix(1 0 0 -1 0 841)" d="M204.376 335.406L206.755 335.406" stroke="#D1D1D1" stroke-width="0.5978" fill="none" /><path id="988" transform="matrix(1 0 0 -1 0 841)" d="M209.133 335.406L211.512 335.406" stroke="#D1D1D1" stroke-width="0.5978" fill="none" /><path id="989" transform="matrix(1 0 0 -1 0 841)" d="M213.891 335.406L216.27 335.406" stroke="#D1D1D1" stroke-width="0.5978" fill="none" /><path id="990" transform="matrix(1 0 0 -1 0 841)" d="M218.648 335.406L221.027 335.406" stroke="#D1D1D1" stroke-width="0.5978" fill="none" /><path id="991" transform="matrix(1 0 0 -1 0 841)" d="M223.406 335.406L225.785 335.406" stroke="#D1D1D1" stroke-width="0.5978" fill="none" /><path id="992" transform="matrix(1 0 0 -1 0 841)" d="M228.164 335.406L230.542 335.406" stroke="#D1D1D1" stroke-width="0.5978" fill="none" /><path id="993" transform="matrix(1 0 0 -1 0 841)" d="M232.921 335.406L235.3 335.406" stroke="#D1D1D1" stroke-width="0.5978" fill="none" /><path id="994" transform="matrix(1 0 0 -1 0 841)" d="M237.679 335.406L240.057 335.406" stroke="#D1D1D1" stroke-width="0.5978" fill="none" /><path id="995" transform="matrix(1 0 0 -1 0 841)" d="M242.436 335.406L244.815 335.406" stroke="#D1D1D1" stroke-width="0.5978" fill="none" /><path id="996" transform="matrix(1 0 0 -1 0 841)" d="M247.194 335.406L249.573 335.406" stroke="#D1D1D1" stroke-width="0.5978" fill="none" /><path id="997" transform="matrix(1 0 0 -1 0 841)" d="M251.951 335.406L254.33 335.406" stroke="#D1D1D1" stroke-width="0.5978" fill="none" /><path id="998" transform="matrix(1 0 0 -1 0 841)" d="M256.709 335.406L259.088 335.406" stroke="#D1D1D1" stroke-width="0.5978" fill="none" /><path id="999" transform="matrix(1 0 0 -1 0 841)" d="M261.466 335.406L263.845 335.406" stroke="#D1D1D1" stroke-width="0.5978" fill="none" /><path id="1000" transform="matrix(1 0 0 -1 0 841)" d="M266.224 335.406L268.603 335.406" stroke="#D1D1D1" stroke-width="0.5978" fill="none" /><path id="1001" transform="matrix(1 0 0 -1 0 841)" d="M270.981 335.406L273.36 335.406" stroke="#D1D1D1" stroke-width="0.5978" fill="none" /><path id="1002" transform="matrix(1 0 0 -1 0 841)" d="M275.739 335.406L278.118 335.406" stroke="#D1D1D1" stroke-width="0.5978" fill="none" /><path id="1003" transform="matrix(1 0 0 -1 0 841)" d="M280.497 335.406L282.875 335.406" stroke="#D1D1D1" stroke-width="0.5978" fill="none" /><path id="1004" transform="matrix(1 0 0 -1 0 841)" d="M285.254 335.406L287.633 335.406" stroke="#D1D1D1" stroke-width="0.5978" fill="none" /><path id="1005" transform="matrix(1 0 0 -1 0 841)" d="M290.012 335.406L292.39 335.406" stroke="#D1D1D1" stroke-width="0.5978" fill="none" /><path id="1006" transform="matrix(1 0 0 -1 0 841)" d="M294.769 335.406L297.148 335.406" stroke="#D1D1D1" stroke-width="0.5978" fill="none" /><path id="1007" transform="matrix(1 0 0 -1 0 841)" d="M299.527 335.406L301.906 335.406" stroke="#D1D1D1" stroke-width="0.5978" fill="none" /><path id="1008" transform="matrix(1 0 0 -1 0 841)" d="M304.284 335.406L306.663 335.406" stroke="#D1D1D1" stroke-width="0.5978" fill="none" /><path id="1009" transform="matrix(1 0 0 -1 0 841)" d="M309.042 335.406L311.421 335.406" stroke="#D1D1D1" stroke-width="0.5978" fill="none" /><path id="1010" transform="matrix(1 0 0 -1 0 841)" d="M313.799 335.406L316.178 335.406" stroke="#D1D1D1" stroke-width="0.5978" fill="none" /><path id="1011" transform="matrix(1 0 0 -1 0 841)" d="M318.557 335.406L320.936 335.406" stroke="#D1D1D1" stroke-width="0.5978" fill="none" /><path id="1012" transform="matrix(1 0 0 -1 0 841)" d="M323.315 335.406L325.693 335.406" stroke="#D1D1D1" stroke-width="0.5978" fill="none" /><path id="1013" transform="matrix(1 0 0 -1 0 841)" d="M328.072 335.406L330.451 335.406" stroke="#D1D1D1" stroke-width="0.5978" fill="none" /><path id="1014" transform="matrix(1 0 0 -1 0 841)" d="M332.83 335.406L335.208 335.406" stroke="#D1D1D1" stroke-width="0.5978" fill="none" /><path id="1164" transform="matrix(1 0 0 -1 0 841)" d="M28.346 170.798L30.725 170.798" stroke="#D1D1D1" stroke-width="0.5978" fill="none" /><path id="1165" transform="matrix(1 0 0 -1 0 841)" d="M33.104 170.798L35.483 170.798" stroke="#D1D1D1" stroke-width="0.5978" fill="none" /><path id="1166" transform="matrix(1 0 0 -1 0 841)" d="M37.862 170.798L40.24 170.798" stroke="#D1D1D1" stroke-width="0.5978" fill="none" /><path id="1167" transform="matrix(1 0 0 -1 0 841)" d="M42.619 170.798L44.998 170.798" stroke="#D1D1D1" stroke-width="0.5978" fill="none" /><path id="1168" transform="matrix(1 0 0 -1 0 841)" d="M47.377 170.798L49.755 170.798" stroke="#D1D1D1" stroke-width="0.5978" fill="none" /><path id="1169" transform="matrix(1 0 0 -1 0 841)" d="M52.134 170.798L54.513 170.798" stroke="#D1D1D1" stroke-width="0.5978" fill="none" /><path id="1170" transform="matrix(1 0 0 -1 0 841)" d="M56.892 170.798L59.271 170.798" stroke="#D1D1D1" stroke-width="0.5978" fill="none" /><path id="1171" transform="matrix(1 0 0 -1 0 841)" d="M61.649 170.798L64.028 170.798" stroke="#D1D1D1" stroke-width="0.5978" fill="none" /><path id="1172" transform="matrix(1 0 0 -1 0 841)" d="M66.407 170.798L68.786 170.798" stroke="#D1D1D1" stroke-width="0.5978" fill="none" /><path id="1173" transform="matrix(1 0 0 -1 0 841)" d="M71.164 170.798L73.543 170.798" stroke="#D1D1D1" stroke-width="0.5978" fill="none" /><path id="1174" transform="matrix(1 0 0 -1 0 841)" d="M75.922 170.798L78.301 170.798" stroke="#D1D1D1" stroke-width="0.5978" fill="none" /><path id="1175" transform="matrix(1 0 0 -1 0 841)" d="M80.68 170.798L83.058 170.798" stroke="#D1D1D1" stroke-width="0.5978" fill="none" /><path id="1176" transform="matrix(1 0 0 -1 0 841)" d="M85.437 170.798L87.816 170.798" stroke="#D1D1D1" stroke-width="0.5978" fill="none" /><path id="1177" transform="matrix(1 0 0 -1 0 841)" d="M90.195 170.798L92.573 170.798" stroke="#D1D1D1" stroke-width="0.5978" fill="none" /><path id="1178" transform="matrix(1 0 0 -1 0 841)" d="M94.952 170.798L97.331 170.798" stroke="#D1D1D1" stroke-width="0.5978" fill="none" /><path id="1179" transform="matrix(1 0 0 -1 0 841)" d="M99.71 170.798L102.088 170.798" stroke="#D1D1D1" stroke-width="0.5978" fill="none" /><path id="1180" transform="matrix(1 0 0 -1 0 841)" d="M104.467 170.798L106.846 170.798" stroke="#D1D1D1" stroke-width="0.5978" fill="none" /><path id="1181" transform="matrix(1 0 0 -1 0 841)" d="M109.225 170.798L111.604 170.798" stroke="#D1D1D1" stroke-width="0.5978" fill="none" /><path id="1182" transform="matrix(1 0 0 -1 0 841)" d="M113.982 170.798L116.361 170.798" stroke="#D1D1D1" stroke-width="0.5978" fill="none" /><path id="1183" transform="matrix(1 0 0 -1 0 841)" d="M118.74 170.798L121.119 170.798" stroke="#D1D1D1" stroke-width="0.5978" fill="none" /><path id="1184" transform="matrix(1 0 0 -1 0 841)" d="M123.497 170.798L125.876 170.798" stroke="#D1D1D1" stroke-width="0.5978" fill="none" /><path id="1185" transform="matrix(1 0 0 -1 0 841)" d="M128.255 170.798L130.634 170.798" stroke="#D1D1D1" stroke-width="0.5978" fill="none" /><path id="1186" transform="matrix(1 0 0 -1 0 841)" d="M133.013 170.798L135.391 170.798" stroke="#D1D1D1" stroke-width="0.5978" fill="none" /><path id="1187" transform="matrix(1 0 0 -1 0 841)" d="M137.77 170.798L140.149 170.798" stroke="#D1D1D1" stroke-width="0.5978" fill="none" /><path id="1188" transform="matrix(1 0 0 -1 0 841)" d="M142.528 170.798L144.906 170.798" stroke="#D1D1D1" stroke-width="0.5978" fill="none" /><path id="1189" transform="matrix(1 0 0 -1 0 841)" d="M147.285 170.798L149.664 170.798" stroke="#D1D1D1" stroke-width="0.5978" fill="none" /><path id="1190" transform="matrix(1 0 0 -1 0 841)" d="M152.043 170.798L154.422 170.798" stroke="#D1D1D1" stroke-width="0.5978" fill="none" /><path id="1191" transform="matrix(1 0 0 -1 0 841)" d="M156.8 170.798L159.179 170.798" stroke="#D1D1D1" stroke-width="0.5978" fill="none" /><path id="1192" transform="matrix(1 0 0 -1 0 841)" d="M161.558 170.798L163.937 170.798" stroke="#D1D1D1" stroke-width="0.5978" fill="none" /><path id="1193" transform="matrix(1 0 0 -1 0 841)" d="M166.315 170.798L168.694 170.798" stroke="#D1D1D1" stroke-width="0.5978" fill="none" /><path id="1194" transform="matrix(1 0 0 -1 0 841)" d="M171.073 170.798L173.452 170.798" stroke="#D1D1D1" stroke-width="0.5978" fill="none" /><path id="1195" transform="matrix(1 0 0 -1 0 841)" d="M175.83 170.798L178.209 170.798" stroke="#D1D1D1" stroke-width="0.5978" fill="none" /><path id="1196" transform="matrix(1 0 0 -1 0 841)" d="M180.588 170.798L182.967 170.798" stroke="#D1D1D1" stroke-width="0.5978" fill="none" /><path id="1197" transform="matrix(1 0 0 -1 0 841)" d="M185.346 170.798L187.724 170.798" stroke="#D1D1D1" stroke-width="0.5978" fill="none" /><path id="1198" transform="matrix(1 0 0 -1 0 841)" d="M190.103 170.798L192.482 170.798" stroke="#D1D1D1" stroke-width="0.5978" fill="none" /><path id="1199" transform="matrix(1 0 0 -1 0 841)" d="M194.861 170.798L197.239 170.798" stroke="#D1D1D1" stroke-width="0.5978" fill="none" /><path id="1200" transform="matrix(1 0 0 -1 0 841)" d="M199.618 170.798L201.997 170.798" stroke="#D1D1D1" stroke-width="0.5978" fill="none" /><path id="1201" transform="matrix(1 0 0 -1 0 841)" d="M204.376 170.798L206.755 170.798" stroke="#D1D1D1" stroke-width="0.5978" fill="none" /><path id="1202" transform="matrix(1 0 0 -1 0 841)" d="M209.133 170.798L211.512 170.798" stroke="#D1D1D1" stroke-width="0.5978" fill="none" /><path id="1203" transform="matrix(1 0 0 -1 0 841)" d="M213.891 170.798L216.27 170.798" stroke="#D1D1D1" stroke-width="0.5978" fill="none" /><path id="1204" transform="matrix(1 0 0 -1 0 841)" d="M218.648 170.798L221.027 170.798" stroke="#D1D1D1" stroke-width="0.5978" fill="none" /><path id="1205" transform="matrix(1 0 0 -1 0 841)" d="M223.406 170.798L225.785 170.798" stroke="#D1D1D1" stroke-width="0.5978" fill="none" /><path id="1206" transform="matrix(1 0 0 -1 0 841)" d="M228.164 170.798L230.542 170.798" stroke="#D1D1D1" stroke-width="0.5978" fill="none" /><path id="1207" transform="matrix(1 0 0 -1 0 841)" d="M232.921 170.798L235.3 170.798" stroke="#D1D1D1" stroke-width="0.5978" fill="none" /><path id="1208" transform="matrix(1 0 0 -1 0 841)" d="M237.679 170.798L240.057 170.798" stroke="#D1D1D1" stroke-width="0.5978" fill="none" /><path id="1209" transform="matrix(1 0 0 -1 0 841)" d="M242.436 170.798L244.815 170.798" stroke="#D1D1D1" stroke-width="0.5978" fill="none" /><path id="1210" transform="matrix(1 0 0 -1 0 841)" d="M247.194 170.798L249.573 170.798" stroke="#D1D1D1" stroke-width="0.5978" fill="none" /><path id="1211" transform="matrix(1 0 0 -1 0 841)" d="M251.951 170.798L254.33 170.798" stroke="#D1D1D1" stroke-width="0.5978" fill="none" /><path id="1212" transform="matrix(1 0 0 -1 0 841)" d="M256.709 170.798L259.088 170.798" stroke="#D1D1D1" stroke-width="0.5978" fill="none" /><path id="1213" transform="matrix(1 0 0 -1 0 841)" d="M261.466 170.798L263.845 170.798" stroke="#D1D1D1" stroke-width="0.5978" fill="none" /><path id="1214" transform="matrix(1 0 0 -1 0 841)" d="M266.224 170.798L268.603 170.798" stroke="#D1D1D1" stroke-width="0.5978" fill="none" /><path id="1215" transform="matrix(1 0 0 -1 0 841)" d="M270.981 170.798L273.36 170.798" stroke="#D1D1D1" stroke-width="0.5978" fill="none" /><path id="1216" transform="matrix(1 0 0 -1 0 841)" d="M275.739 170.798L278.118 170.798" stroke="#D1D1D1" stroke-width="0.5978" fill="none" /><path id="1217" transform="matrix(1 0 0 -1 0 841)" d="M280.497 170.798L282.875 170.798" stroke="#D1D1D1" stroke-width="0.5978" fill="none" /><path id="1218" transform="matrix(1 0 0 -1 0 841)" d="M285.254 170.798L287.633 170.798" stroke="#D1D1D1" stroke-width="0.5978" fill="none" /><path id="1219" transform="matrix(1 0 0 -1 0 841)" d="M290.012 170.798L292.39 170.798" stroke="#D1D1D1" stroke-width="0.5978" fill="none" /><path id="1220" transform="matrix(1 0 0 -1 0 841)" d="M294.769 170.798L297.148 170.798" stroke="#D1D1D1" stroke-width="0.5978" fill="none" /><path id="1221" transform="matrix(1 0 0 -1 0 841)" d="M299.527 170.798L301.906 170.798" stroke="#D1D1D1" stroke-width="0.5978" fill="none" /><path id="1222" transform="matrix(1 0 0 -1 0 841)" d="M304.284 170.798L306.663 170.798" stroke="#D1D1D1" stroke-width="0.5978" fill="none" /><path id="1223" transform="matrix(1 0 0 -1 0 841)" d="M309.042 170.798L311.421 170.798" stroke="#D1D1D1" stroke-width="0.5978" fill="none" /><path id="1224" transform="matrix(1 0 0 -1 0 841)" d="M313.799 170.798L316.178 170.798" stroke="#D1D1D1" stroke-width="0.5978" fill="none" /><path id="1225" transform="matrix(1 0 0 -1 0 841)" d="M318.557 170.798L320.936 170.798" stroke="#D1D1D1" stroke-width="0.5978" fill="none" /><path id="1226" transform="matrix(1 0 0 -1 0 841)" d="M323.315 170.798L325.693 170.798" stroke="#D1D1D1" stroke-width="0.5978" fill="none" /><path id="1227" transform="matrix(1 0 0 -1 0 841)" d="M328.072 170.798L330.451 170.798" stroke="#D1D1D1" stroke-width="0.5978" fill="none" /><path id="1228" transform="matrix(1 0 0 -1 0 841)" d="M332.83 170.798L335.208 170.798" stroke="#D1D1D1" stroke-width="0.5978" fill="none" /></g></g></svg>