<svg xmlns="http://www.w3.org/2000/svg" xmlns:xlink="http://www.w3.org/1999/xlink" id="body_1" preserveAspectRatio="xMinYMin meet" viewBox="0 0 793 1121"><defs><clipPath id="1"><path id="" clip-rule="evenodd" transform="matrix(1 0 0 1 0 0)" d="M0 841L0 -0.8900146L0 -0.8900146L595.28 -0.8900146L595.28 -0.8900146L595.28 841L595.28 841L0 841z" /></clipPath><clipPath id="2"><path id="" clip-rule="evenodd" transform="matrix(1 0 0 1 0 0)" d="M566.9296 91.23602C 566.9296 59.92462 541.5474 34.54242 510.236 34.54242C 478.9246 34.54242 453.5424 59.92462 453.5424 91.23602C 453.5424 122.5474 478.9246 147.9296 510.236 147.9296C 541.5474 147.9296 566.9296 122.5474 566.9296 91.23602z" /></clipPath></defs><g transform="matrix(1.333333 0 0 1.333333 0 0)"><g clip-path="url(#1)"><g clip-path="url(#2)"><g transform="matrix(0.08300962 0 0 0.08300961 453.5383 25.82788)"><g transform="matrix(1 0 0 1 0 0)"><image x="0" y="0" xlink:href="img_01.png" width="1366" height="1576" /></g></g></g><path id="128" transform="matrix(1 0 0 -1 0 841)" d="M374.173 654.659L566.929 654.659" stroke="#3E0097" stroke-width="1.9925" fill="none" /><path id="207" transform="matrix(1 0 0 -1 0 841)" d="M374.173 533.688L566.929 533.688" stroke="#3E0097" stroke-width="1.9925" fill="none" /><path id="277" transform="matrix(1 0 0 -1 0 841)" d="M374.173 396.179L566.929 396.179" stroke="#3E0097" stroke-width="1.9925" fill="none" /><path id="317" transform="matrix(1 0 0 -1 0 841)" d="M374.173 316.303L566.929 316.303" stroke="#3E0097" stroke-width="1.9925" fill="none" /><path id="318" transform="matrix(1 0 0 -1 0 841)" d="M393.5526 304.4926L378.3574 304.4926C 376.1565 304.4926 374.3723 302.7085 374.3723 300.5075L374.3723 300.5075L374.3723 293.0155C 374.3723 290.8146 376.1565 289.0304 378.3574 289.0304L378.3574 289.0304L393.5526 289.0304C 395.7535 289.0304 397.5377 290.8146 397.5377 293.0155L397.5377 293.0155L397.5377 300.5075C 397.5377 302.7085 395.7535 304.4926 393.5526 304.4926z" stroke="#D1D1D1" stroke-width="0.3985" fill="none" /><path id="322" transform="matrix(1 0 0 -1 0 841)" d="M433.0964 304.4926L406.4256 304.4926C 404.2246 304.4926 402.4405 302.7085 402.4405 300.5075L402.4405 300.5075L402.4405 293.0155C 402.4405 290.8146 404.2246 289.0304 406.4256 289.0304L406.4256 289.0304L433.0964 289.0304C 435.2973 289.0304 437.0815 290.8146 437.0815 293.0155L437.0815 293.0155L437.0815 300.5075C 437.0815 302.7085 435.2973 304.4926 433.0964 304.4926z" stroke="#D1D1D1" stroke-width="0.3985" fill="none" /><path id="328" transform="matrix(1 0 0 -1 0 841)" d="M483.9791 304.4926L445.9689 304.4926C 443.7679 304.4926 441.9838 302.7085 441.9838 300.5075L441.9838 300.5075L441.9838 293.0155C 441.9838 290.8146 443.7679 289.0304 445.9689 289.0304L445.9689 289.0304L483.9791 289.0304C 486.1801 289.0304 487.9642 290.8146 487.9642 293.0155L487.9642 293.0155L487.9642 300.5075C 487.9642 302.7085 486.1801 304.4926 483.9791 304.4926z" stroke="#D1D1D1" stroke-width="0.3985" fill="none" /><path id="336" transform="matrix(1 0 0 -1 0 841)" d="M527.2254 304.4926L496.8526 304.4926C 494.6517 304.4926 492.8675 302.7085 492.8675 300.5075L492.8675 300.5075L492.8675 293.0155C 492.8675 290.8146 494.6517 289.0304 496.8526 289.0304L496.8526 289.0304L527.2254 289.0304C 529.4263 289.0304 531.2105 290.8146 531.2105 293.0155L531.2105 293.0155L531.2105 300.5075C 531.2105 302.7085 529.4263 304.4926 527.2254 304.4926z" stroke="#D1D1D1" stroke-width="0.3985" fill="none" /><path id="343" transform="matrix(1 0 0 -1 0 841)" d="M401.9542 287.6356L378.3578 287.6356C 376.1569 287.6356 374.3727 285.8515 374.3727 283.6505L374.3727 283.6505L374.3727 276.1585C 374.3727 273.9576 376.1569 272.1734 378.3578 272.1734L378.3578 272.1734L401.9542 272.1734C 404.1552 272.1734 405.9393 273.9576 405.9393 276.1585L405.9393 276.1585L405.9393 283.6505C 405.9393 285.8515 404.1552 287.6356 401.9542 287.6356z" stroke="#D1D1D1" stroke-width="0.3985" fill="none" /><path id="349" transform="matrix(1 0 0 -1 0 841)" d="M449.5533 287.6356L414.8267 287.6356C 412.6257 287.6356 410.8416 285.8515 410.8416 283.6505L410.8416 283.6505L410.8416 276.1585C 410.8416 273.9576 412.6257 272.1734 414.8267 272.1734L414.8267 272.1734L449.5533 272.1734C 451.7543 272.1734 453.5384 273.9576 453.5384 276.1585L453.5384 276.1585L453.5384 283.6505C 453.5384 285.8515 451.7543 287.6356 449.5533 287.6356z" stroke="#D1D1D1" stroke-width="0.3985" fill="none" /><path id="356" transform="matrix(1 0 0 -1 0 841)" d="M489.846 287.6356L462.426 287.6356C 460.2251 287.6356 458.4409 285.8515 458.4409 283.6505L458.4409 283.6505L458.4409 276.1585C 458.4409 273.9576 460.2251 272.1734 462.426 272.1734L462.426 272.1734L489.846 272.1734C 492.0469 272.1734 493.8311 273.9576 493.8311 276.1585L493.8311 276.1585L493.8311 283.6505C 493.8311 285.8515 492.0469 287.6356 489.846 287.6356z" stroke="#D1D1D1" stroke-width="0.3985" fill="none" /><path id="365" transform="matrix(1 0 0 -1 0 841)" d="M452.1128 270.7786L378.3572 270.7786C 376.1563 270.7786 374.3721 268.9945 374.3721 266.7935L374.3721 266.7935L374.3721 259.3015C 374.3721 257.1006 376.1563 255.3164 378.3572 255.3164L378.3572 255.3164L452.1128 255.3164C 454.3137 255.3164 456.0979 257.1006 456.0979 259.3015L456.0979 259.3015L456.0979 266.7935C 456.0979 268.9945 454.3137 270.7786 452.1128 270.7786z" stroke="#D1D1D1" stroke-width="0.3985" fill="none" /><path id="381" transform="matrix(1 0 0 -1 0 841)" d="M374.173 244.831L376.552 244.831" stroke="#D1D1D1" stroke-width="0.5978" fill="none" /><path id="382" transform="matrix(1 0 0 -1 0 841)" d="M378.931 244.831L381.309 244.831" stroke="#D1D1D1" stroke-width="0.5978" fill="none" /><path id="383" transform="matrix(1 0 0 -1 0 841)" d="M383.688 244.831L386.067 244.831" stroke="#D1D1D1" stroke-width="0.5978" fill="none" /><path id="384" transform="matrix(1 0 0 -1 0 841)" d="M388.446 244.831L390.825 244.831" stroke="#D1D1D1" stroke-width="0.5978" fill="none" /><path id="385" transform="matrix(1 0 0 -1 0 841)" d="M393.203 244.831L395.582 244.831" stroke="#D1D1D1" stroke-width="0.5978" fill="none" /><path id="386" transform="matrix(1 0 0 -1 0 841)" d="M397.961 244.831L400.34 244.831" stroke="#D1D1D1" stroke-width="0.5978" fill="none" /><path id="387" transform="matrix(1 0 0 -1 0 841)" d="M402.718 244.831L405.097 244.831" stroke="#D1D1D1" stroke-width="0.5978" fill="none" /><path id="388" transform="matrix(1 0 0 -1 0 841)" d="M407.476 244.831L409.855 244.831" stroke="#D1D1D1" stroke-width="0.5978" fill="none" /><path id="389" transform="matrix(1 0 0 -1 0 841)" d="M412.234 244.831L414.612 244.831" stroke="#D1D1D1" stroke-width="0.5978" fill="none" /><path id="390" transform="matrix(1 0 0 -1 0 841)" d="M416.991 244.831L419.37 244.831" stroke="#D1D1D1" stroke-width="0.5978" fill="none" /><path id="391" transform="matrix(1 0 0 -1 0 841)" d="M421.749 244.831L424.127 244.831" stroke="#D1D1D1" stroke-width="0.5978" fill="none" /><path id="392" transform="matrix(1 0 0 -1 0 841)" d="M426.506 244.831L428.885 244.831" stroke="#D1D1D1" stroke-width="0.5978" fill="none" /><path id="393" transform="matrix(1 0 0 -1 0 841)" d="M431.264 244.831L433.643 244.831" stroke="#D1D1D1" stroke-width="0.5978" fill="none" /><path id="394" transform="matrix(1 0 0 -1 0 841)" d="M436.021 244.831L438.4 244.831" stroke="#D1D1D1" stroke-width="0.5978" fill="none" /><path id="395" transform="matrix(1 0 0 -1 0 841)" d="M440.779 244.831L443.158 244.831" stroke="#D1D1D1" stroke-width="0.5978" fill="none" /><path id="396" transform="matrix(1 0 0 -1 0 841)" d="M445.536 244.831L447.915 244.831" stroke="#D1D1D1" stroke-width="0.5978" fill="none" /><path id="397" transform="matrix(1 0 0 -1 0 841)" d="M450.294 244.831L452.673 244.831" stroke="#D1D1D1" stroke-width="0.5978" fill="none" /><path id="398" transform="matrix(1 0 0 -1 0 841)" d="M455.052 244.831L457.43 244.831" stroke="#D1D1D1" stroke-width="0.5978" fill="none" /><path id="399" transform="matrix(1 0 0 -1 0 841)" d="M459.809 244.831L462.188 244.831" stroke="#D1D1D1" stroke-width="0.5978" fill="none" /><path id="400" transform="matrix(1 0 0 -1 0 841)" d="M464.567 244.831L466.945 244.831" stroke="#D1D1D1" stroke-width="0.5978" fill="none" /><path id="401" transform="matrix(1 0 0 -1 0 841)" d="M469.324 244.831L471.703 244.831" stroke="#D1D1D1" stroke-width="0.5978" fill="none" /><path id="402" transform="matrix(1 0 0 -1 0 841)" d="M474.082 244.831L476.46 244.831" stroke="#D1D1D1" stroke-width="0.5978" fill="none" /><path id="403" transform="matrix(1 0 0 -1 0 841)" d="M478.839 244.831L481.218 244.831" stroke="#D1D1D1" stroke-width="0.5978" fill="none" /><path id="404" transform="matrix(1 0 0 -1 0 841)" d="M483.597 244.831L485.976 244.831" stroke="#D1D1D1" stroke-width="0.5978" fill="none" /><path id="405" transform="matrix(1 0 0 -1 0 841)" d="M488.354 244.831L490.733 244.831" stroke="#D1D1D1" stroke-width="0.5978" fill="none" /><path id="406" transform="matrix(1 0 0 -1 0 841)" d="M493.112 244.831L495.491 244.831" stroke="#D1D1D1" stroke-width="0.5978" fill="none" /><path id="407" transform="matrix(1 0 0 -1 0 841)" d="M497.869 244.831L500.248 244.831" stroke="#D1D1D1" stroke-width="0.5978" fill="none" /><path id="408" transform="matrix(1 0 0 -1 0 841)" d="M502.627 244.831L505.006 244.831" stroke="#D1D1D1" stroke-width="0.5978" fill="none" /><path id="409" transform="matrix(1 0 0 -1 0 841)" d="M507.385 244.831L509.763 244.831" stroke="#D1D1D1" stroke-width="0.5978" fill="none" /><path id="410" transform="matrix(1 0 0 -1 0 841)" d="M512.142 244.831L514.521 244.831" stroke="#D1D1D1" stroke-width="0.5978" fill="none" /><path id="411" transform="matrix(1 0 0 -1 0 841)" d="M516.9 244.831L519.278 244.831" stroke="#D1D1D1" stroke-width="0.5978" fill="none" /><path id="412" transform="matrix(1 0 0 -1 0 841)" d="M521.657 244.831L524.036 244.831" stroke="#D1D1D1" stroke-width="0.5978" fill="none" /><path id="413" transform="matrix(1 0 0 -1 0 841)" d="M526.415 244.831L528.794 244.831" stroke="#D1D1D1" stroke-width="0.5978" fill="none" /><path id="414" transform="matrix(1 0 0 -1 0 841)" d="M531.172 244.831L533.551 244.831" stroke="#D1D1D1" stroke-width="0.5978" fill="none" /><path id="415" transform="matrix(1 0 0 -1 0 841)" d="M535.93 244.831L538.309 244.831" stroke="#D1D1D1" stroke-width="0.5978" fill="none" /><path id="416" transform="matrix(1 0 0 -1 0 841)" d="M540.687 244.831L543.066 244.831" stroke="#D1D1D1" stroke-width="0.5978" fill="none" /><path id="417" transform="matrix(1 0 0 -1 0 841)" d="M545.445 244.831L547.824 244.831" stroke="#D1D1D1" stroke-width="0.5978" fill="none" /><path id="418" transform="matrix(1 0 0 -1 0 841)" d="M550.202 244.831L552.581 244.831" stroke="#D1D1D1" stroke-width="0.5978" fill="none" /><path id="419" transform="matrix(1 0 0 -1 0 841)" d="M554.96 244.831L557.339 244.831" stroke="#D1D1D1" stroke-width="0.5978" fill="none" /><path id="420" transform="matrix(1 0 0 -1 0 841)" d="M559.718 244.831L562.096 244.831" stroke="#D1D1D1" stroke-width="0.5978" fill="none" /><path id="421" transform="matrix(1 0 0 -1 0 841)" d="M409.2211 233.7176L378.3569 233.7176C 376.156 233.7176 374.3718 231.9335 374.3718 229.7325L374.3718 229.7325L374.3718 222.2405C 374.3718 220.0396 376.156 218.2554 378.3569 218.2554L378.3569 218.2554L409.2211 218.2554C 411.422 218.2554 413.2062 220.0396 413.2062 222.2405L413.2062 222.2405L413.2062 229.7325C 413.2062 231.9335 411.422 233.7176 409.2211 233.7176z" stroke="#D1D1D1" stroke-width="0.3985" fill="none" /><path id="427" transform="matrix(1 0 0 -1 0 841)" d="M452.0339 233.7176L422.0941 233.7176C 419.8931 233.7176 418.109 231.9335 418.109 229.7325L418.109 229.7325L418.109 222.2405C 418.109 220.0396 419.8931 218.2554 422.0941 218.2554L422.0941 218.2554L452.0339 218.2554C 454.2349 218.2554 456.019 220.0396 456.019 222.2405L456.019 222.2405L456.019 229.7325C 456.019 231.9335 454.2349 233.7176 452.0339 233.7176z" stroke="#D1D1D1" stroke-width="0.3985" fill="none" /><path id="434" transform="matrix(1 0 0 -1 0 841)" d="M477.7813 233.7176L464.9066 233.7176C 462.7057 233.7176 460.9215 231.9335 460.9215 229.7325L460.9215 229.7325L460.9215 222.2405C 460.9215 220.0396 462.7057 218.2554 464.9066 218.2554L464.9066 218.2554L477.7813 218.2554C 479.9823 218.2554 481.7665 220.0396 481.7665 222.2405L481.7665 222.2405L481.7665 229.7325C 481.7665 231.9335 479.9823 233.7176 477.7813 233.7176z" stroke="#D1D1D1" stroke-width="0.3985" fill="none" /><path id="437" transform="matrix(1 0 0 -1 0 841)" d="M533.4757 233.7176L490.6543 233.7176C 488.4533 233.7176 486.6692 231.9335 486.6692 229.7325L486.6692 229.7325L486.6692 222.2405C 486.6692 220.0396 488.4533 218.2554 490.6543 218.2554L490.6543 218.2554L533.4757 218.2554C 535.6766 218.2554 537.4608 220.0396 537.4608 222.2405L537.4608 222.2405L537.4608 229.7325C 537.4608 231.9335 535.6766 233.7176 533.4757 233.7176z" stroke="#D1D1D1" stroke-width="0.3985" fill="none" /><path id="454" transform="matrix(1 0 0 -1 0 841)" d="M374.173 175.143L566.929 175.143" stroke="#3E0097" stroke-width="1.9925" fill="none" /><path id="592" transform="matrix(1 0 0 -1 0 841)" d="M28.346 651.072L340.157 651.072" stroke="#3E0097" stroke-width="1.9925" fill="none" /><path id="769" transform="matrix(1 0 0 -1 0 841)" d="M28.346 485.767L30.725 485.767" stroke="#D1D1D1" stroke-width="0.5978" fill="none" /><path id="770" transform="matrix(1 0 0 -1 0 841)" d="M33.104 485.767L35.483 485.767" stroke="#D1D1D1" stroke-width="0.5978" fill="none" /><path id="771" transform="matrix(1 0 0 -1 0 841)" d="M37.862 485.767L40.24 485.767" stroke="#D1D1D1" stroke-width="0.5978" fill="none" /><path id="772" transform="matrix(1 0 0 -1 0 841)" d="M42.619 485.767L44.998 485.767" stroke="#D1D1D1" stroke-width="0.5978" fill="none" /><path id="773" transform="matrix(1 0 0 -1 0 841)" d="M47.377 485.767L49.755 485.767" stroke="#D1D1D1" stroke-width="0.5978" fill="none" /><path id="774" transform="matrix(1 0 0 -1 0 841)" d="M52.134 485.767L54.513 485.767" stroke="#D1D1D1" stroke-width="0.5978" fill="none" /><path id="775" transform="matrix(1 0 0 -1 0 841)" d="M56.892 485.767L59.271 485.767" stroke="#D1D1D1" stroke-width="0.5978" fill="none" /><path id="776" transform="matrix(1 0 0 -1 0 841)" d="M61.649 485.767L64.028 485.767" stroke="#D1D1D1" stroke-width="0.5978" fill="none" /><path id="777" transform="matrix(1 0 0 -1 0 841)" d="M66.407 485.767L68.786 485.767" stroke="#D1D1D1" stroke-width="0.5978" fill="none" /><path id="778" transform="matrix(1 0 0 -1 0 841)" d="M71.164 485.767L73.543 485.767" stroke="#D1D1D1" stroke-width="0.5978" fill="none" /><path id="779" transform="matrix(1 0 0 -1 0 841)" d="M75.922 485.767L78.301 485.767" stroke="#D1D1D1" stroke-width="0.5978" fill="none" /><path id="780" transform="matrix(1 0 0 -1 0 841)" d="M80.68 485.767L83.058 485.767" stroke="#D1D1D1" stroke-width="0.5978" fill="none" /><path id="781" transform="matrix(1 0 0 -1 0 841)" d="M85.437 485.767L87.816 485.767" stroke="#D1D1D1" stroke-width="0.5978" fill="none" /><path id="782" transform="matrix(1 0 0 -1 0 841)" d="M90.195 485.767L92.573 485.767" stroke="#D1D1D1" stroke-width="0.5978" fill="none" /><path id="783" transform="matrix(1 0 0 -1 0 841)" d="M94.952 485.767L97.331 485.767" stroke="#D1D1D1" stroke-width="0.5978" fill="none" /><path id="784" transform="matrix(1 0 0 -1 0 841)" d="M99.71 485.767L102.088 485.767" stroke="#D1D1D1" stroke-width="0.5978" fill="none" /><path id="785" transform="matrix(1 0 0 -1 0 841)" d="M104.467 485.767L106.846 485.767" stroke="#D1D1D1" stroke-width="0.5978" fill="none" /><path id="786" transform="matrix(1 0 0 -1 0 841)" d="M109.225 485.767L111.604 485.767" stroke="#D1D1D1" stroke-width="0.5978" fill="none" /><path id="787" transform="matrix(1 0 0 -1 0 841)" d="M113.982 485.767L116.361 485.767" stroke="#D1D1D1" stroke-width="0.5978" fill="none" /><path id="788" transform="matrix(1 0 0 -1 0 841)" d="M118.74 485.767L121.119 485.767" stroke="#D1D1D1" stroke-width="0.5978" fill="none" /><path id="789" transform="matrix(1 0 0 -1 0 841)" d="M123.497 485.767L125.876 485.767" stroke="#D1D1D1" stroke-width="0.5978" fill="none" /><path id="790" transform="matrix(1 0 0 -1 0 841)" d="M128.255 485.767L130.634 485.767" stroke="#D1D1D1" stroke-width="0.5978" fill="none" /><path id="791" transform="matrix(1 0 0 -1 0 841)" d="M133.013 485.767L135.391 485.767" stroke="#D1D1D1" stroke-width="0.5978" fill="none" /><path id="792" transform="matrix(1 0 0 -1 0 841)" d="M137.77 485.767L140.149 485.767" stroke="#D1D1D1" stroke-width="0.5978" fill="none" /><path id="793" transform="matrix(1 0 0 -1 0 841)" d="M142.528 485.767L144.906 485.767" stroke="#D1D1D1" stroke-width="0.5978" fill="none" /><path id="794" transform="matrix(1 0 0 -1 0 841)" d="M147.285 485.767L149.664 485.767" stroke="#D1D1D1" stroke-width="0.5978" fill="none" /><path id="795" transform="matrix(1 0 0 -1 0 841)" d="M152.043 485.767L154.422 485.767" stroke="#D1D1D1" stroke-width="0.5978" fill="none" /><path id="796" transform="matrix(1 0 0 -1 0 841)" d="M156.8 485.767L159.179 485.767" stroke="#D1D1D1" stroke-width="0.5978" fill="none" /><path id="797" transform="matrix(1 0 0 -1 0 841)" d="M161.558 485.767L163.937 485.767" stroke="#D1D1D1" stroke-width="0.5978" fill="none" /><path id="798" transform="matrix(1 0 0 -1 0 841)" d="M166.315 485.767L168.694 485.767" stroke="#D1D1D1" stroke-width="0.5978" fill="none" /><path id="799" transform="matrix(1 0 0 -1 0 841)" d="M171.073 485.767L173.452 485.767" stroke="#D1D1D1" stroke-width="0.5978" fill="none" /><path id="800" transform="matrix(1 0 0 -1 0 841)" d="M175.83 485.767L178.209 485.767" stroke="#D1D1D1" stroke-width="0.5978" fill="none" /><path id="801" transform="matrix(1 0 0 -1 0 841)" d="M180.588 485.767L182.967 485.767" stroke="#D1D1D1" stroke-width="0.5978" fill="none" /><path id="802" transform="matrix(1 0 0 -1 0 841)" d="M185.346 485.767L187.724 485.767" stroke="#D1D1D1" stroke-width="0.5978" fill="none" /><path id="803" transform="matrix(1 0 0 -1 0 841)" d="M190.103 485.767L192.482 485.767" stroke="#D1D1D1" stroke-width="0.5978" fill="none" /><path id="804" transform="matrix(1 0 0 -1 0 841)" d="M194.861 485.767L197.239 485.767" stroke="#D1D1D1" stroke-width="0.5978" fill="none" /><path id="805" transform="matrix(1 0 0 -1 0 841)" d="M199.618 485.767L201.997 485.767" stroke="#D1D1D1" stroke-width="0.5978" fill="none" /><path id="806" transform="matrix(1 0 0 -1 0 841)" d="M204.376 485.767L206.755 485.767" stroke="#D1D1D1" stroke-width="0.5978" fill="none" /><path id="807" transform="matrix(1 0 0 -1 0 841)" d="M209.133 485.767L211.512 485.767" stroke="#D1D1D1" stroke-width="0.5978" fill="none" /><path id="808" transform="matrix(1 0 0 -1 0 841)" d="M213.891 485.767L216.27 485.767" stroke="#D1D1D1" stroke-width="0.5978" fill="none" /><path id="809" transform="matrix(1 0 0 -1 0 841)" d="M218.648 485.767L221.027 485.767" stroke="#D1D1D1" stroke-width="0.5978" fill="none" /><path id="810" transform="matrix(1 0 0 -1 0 841)" d="M223.406 485.767L225.785 485.767" stroke="#D1D1D1" stroke-width="0.5978" fill="none" /><path id="811" transform="matrix(1 0 0 -1 0 841)" d="M228.164 485.767L230.542 485.767" stroke="#D1D1D1" stroke-width="0.5978" fill="none" /><path id="812" transform="matrix(1 0 0 -1 0 841)" d="M232.921 485.767L235.3 485.767" stroke="#D1D1D1" stroke-width="0.5978" fill="none" /><path id="813" transform="matrix(1 0 0 -1 0 841)" d="M237.679 485.767L240.057 485.767" stroke="#D1D1D1" stroke-width="0.5978" fill="none" /><path id="814" transform="matrix(1 0 0 -1 0 841)" d="M242.436 485.767L244.815 485.767" stroke="#D1D1D1" stroke-width="0.5978" fill="none" /><path id="815" transform="matrix(1 0 0 -1 0 841)" d="M247.194 485.767L249.573 485.767" stroke="#D1D1D1" stroke-width="0.5978" fill="none" /><path id="816" transform="matrix(1 0 0 -1 0 841)" d="M251.951 485.767L254.33 485.767" stroke="#D1D1D1" stroke-width="0.5978" fill="none" /><path id="817" transform="matrix(1 0 0 -1 0 841)" d="M256.709 485.767L259.088 485.767" stroke="#D1D1D1" stroke-width="0.5978" fill="none" /><path id="818" transform="matrix(1 0 0 -1 0 841)" d="M261.466 485.767L263.845 485.767" stroke="#D1D1D1" stroke-width="0.5978" fill="none" /><path id="819" transform="matrix(1 0 0 -1 0 841)" d="M266.224 485.767L268.603 485.767" stroke="#D1D1D1" stroke-width="0.5978" fill="none" /><path id="820" transform="matrix(1 0 0 -1 0 841)" d="M270.981 485.767L273.36 485.767" stroke="#D1D1D1" stroke-width="0.5978" fill="none" /><path id="821" transform="matrix(1 0 0 -1 0 841)" d="M275.739 485.767L278.118 485.767" stroke="#D1D1D1" stroke-width="0.5978" fill="none" /><path id="822" transform="matrix(1 0 0 -1 0 841)" d="M280.497 485.767L282.875 485.767" stroke="#D1D1D1" stroke-width="0.5978" fill="none" /><path id="823" transform="matrix(1 0 0 -1 0 841)" d="M285.254 485.767L287.633 485.767" stroke="#D1D1D1" stroke-width="0.5978" fill="none" /><path id="824" transform="matrix(1 0 0 -1 0 841)" d="M290.012 485.767L292.39 485.767" stroke="#D1D1D1" stroke-width="0.5978" fill="none" /><path id="825" transform="matrix(1 0 0 -1 0 841)" d="M294.769 485.767L297.148 485.767" stroke="#D1D1D1" stroke-width="0.5978" fill="none" /><path id="826" transform="matrix(1 0 0 -1 0 841)" d="M299.527 485.767L301.906 485.767" stroke="#D1D1D1" stroke-width="0.5978" fill="none" /><path id="827" transform="matrix(1 0 0 -1 0 841)" d="M304.284 485.767L306.663 485.767" stroke="#D1D1D1" stroke-width="0.5978" fill="none" /><path id="828" transform="matrix(1 0 0 -1 0 841)" d="M309.042 485.767L311.421 485.767" stroke="#D1D1D1" stroke-width="0.5978" fill="none" /><path id="829" transform="matrix(1 0 0 -1 0 841)" d="M313.799 485.767L316.178 485.767" stroke="#D1D1D1" stroke-width="0.5978" fill="none" /><path id="830" transform="matrix(1 0 0 -1 0 841)" d="M318.557 485.767L320.936 485.767" stroke="#D1D1D1" stroke-width="0.5978" fill="none" /><path id="831" transform="matrix(1 0 0 -1 0 841)" d="M323.315 485.767L325.693 485.767" stroke="#D1D1D1" stroke-width="0.5978" fill="none" /><path id="832" transform="matrix(1 0 0 -1 0 841)" d="M328.072 485.767L330.451 485.767" stroke="#D1D1D1" stroke-width="0.5978" fill="none" /><path id="833" transform="matrix(1 0 0 -1 0 841)" d="M332.83 485.767L335.208 485.767" stroke="#D1D1D1" stroke-width="0.5978" fill="none" /><path id="939" transform="matrix(1 0 0 -1 0 841)" d="M28.346 335.406L30.725 335.406" stroke="#D1D1D1" stroke-width="0.5978" fill="none" /><path id="940" transform="matrix(1 0 0 -1 0 841)" d="M33.104 335.406L35.483 335.406" stroke="#D1D1D1" stroke-width="0.5978" fill="none" /><path id="941" transform="matrix(1 0 0 -1 0 841)" d="M37.862 335.406L40.24 335.406" stroke="#D1D1D1" stroke-width="0.5978" fill="none" /><path id="942" transform="matrix(1 0 0 -1 0 841)" d="M42.619 335.406L44.998 335.406" stroke="#D1D1D1" stroke-width="0.5978" fill="none" /><path id="943" transform="matrix(1 0 0 -1 0 841)" d="M47.377 335.406L49.755 335.406" stroke="#D1D1D1" stroke-width="0.5978" fill="none" /><path id="944" transform="matrix(1 0 0 -1 0 841)" d="M52.134 335.406L54.513 335.406" stroke="#D1D1D1" stroke-width="0.5978" fill="none" /><path id="945" transform="matrix(1 0 0 -1 0 841)" d="M56.892 335.406L59.271 335.406" stroke="#D1D1D1" stroke-width="0.5978" fill="none" /><path id="946" transform="matrix(1 0 0 -1 0 841)" d="M61.649 335.406L64.028 335.406" stroke="#D1D1D1" stroke-width="0.5978" fill="none" /><path id="947" transform="matrix(1 0 0 -1 0 841)" d="M66.407 335.406L68.786 335.406" stroke="#D1D1D1" stroke-width="0.5978" fill="none" /><path id="948" transform="matrix(1 0 0 -1 0 841)" d="M71.164 335.406L73.543 335.406" stroke="#D1D1D1" stroke-width="0.5978" fill="none" /><path id="949" transform="matrix(1 0 0 -1 0 841)" d="M75.922 335.406L78.301 335.406" stroke="#D1D1D1" stroke-width="0.5978" fill="none" /><path id="950" transform="matrix(1 0 0 -1 0 841)" d="M80.68 335.406L83.058 335.406" stroke="#D1D1D1" stroke-width="0.5978" fill="none" /><path id="951" transform="matrix(1 0 0 -1 0 841)" d="M85.437 335.406L87.816 335.406" stroke="#D1D1D1" stroke-width="0.5978" fill="none" /><path id="952" transform="matrix(1 0 0 -1 0 841)" d="M90.195 335.406L92.573 335.406" stroke="#D1D1D1" stroke-width="0.5978" fill="none" /><path id="953" transform="matrix(1 0 0 -1 0 841)" d="M94.952 335.406L97.331 335.406" stroke="#D1D1D1" stroke-width="0.5978" fill="none" /><path id="954" transform="matrix(1 0 0 -1 0 841)" d="M99.71 335.406L102.088 335.406" stroke="#D1D1D1" stroke-width="0.5978" fill="none" /><path id="955" transform="matrix(1 0 0 -1 0 841)" d="M104.467 335.406L106.846 335.406" stroke="#D1D1D1" stroke-width="0.5978" fill="none" /><path id="956" transform="matrix(1 0 0 -1 0 841)" d="M109.225 335.406L111.604 335.406" stroke="#D1D1D1" stroke-width="0.5978" fill="none" /><path id="957" transform="matrix(1 0 0 -1 0 841)" d="M113.982 335.406L116.361 335.406" stroke="#D1D1D1" stroke-width="0.5978" fill="none" /><path id="958" transform="matrix(1 0 0 -1 0 841)" d="M118.74 335.406L121.119 335.406" stroke="#D1D1D1" stroke-width="0.5978" fill="none" /><path id="959" transform="matrix(1 0 0 -1 0 841)" d="M123.497 335.406L125.876 335.406" stroke="#D1D1D1" stroke-width="0.5978" fill="none" /><path id="960" transform="matrix(1 0 0 -1 0 841)" d="M128.255 335.406L130.634 335.406" stroke="#D1D1D1" stroke-width="0.5978" fill="none" /><path id="961" transform="matrix(1 0 0 -1 0 841)" d="M133.013 335.406L135.391 335.406" stroke="#D1D1D1" stroke-width="0.5978" fill="none" /><path id="962" transform="matrix(1 0 0 -1 0 841)" d="M137.77 335.406L140.149 335.406" stroke="#D1D1D1" stroke-width="0.5978" fill="none" /><path id="963" transform="matrix(1 0 0 -1 0 841)" d="M142.528 335.406L144.906 335.406" stroke="#D1D1D1" stroke-width="0.5978" fill="none" /><path id="964" transform="matrix(1 0 0 -1 0 841)" d="M147.285 335.406L149.664 335.406" stroke="#D1D1D1" stroke-width="0.5978" fill="none" /><path id="965" transform="matrix(1 0 0 -1 0 841)" d="M152.043 335.406L154.422 335.406" stroke="#D1D1D1" stroke-width="0.5978" fill="none" /><path id="966" transform="matrix(1 0 0 -1 0 841)" d="M156.8 335.406L159.179 335.406" stroke="#D1D1D1" stroke-width="0.5978" fill="none" /><path id="967" transform="matrix(1 0 0 -1 0 841)" d="M161.558 335.406L163.937 335.406" stroke="#D1D1D1" stroke-width="0.5978" fill="none" /><path id="968" transform="matrix(1 0 0 -1 0 841)" d="M166.315 335.406L168.694 335.406" stroke="#D1D1D1" stroke-width="0.5978" fill="none" /><path id="969" transform="matrix(1 0 0 -1 0 841)" d="M171.073 335.406L173.452 335.406" stroke="#D1D1D1" stroke-width="0.5978" fill="none" /><path id="970" transform="matrix(1 0 0 -1 0 841)" d="M175.83 335.406L178.209 335.406" stroke="#D1D1D1" stroke-width="0.5978" fill="none" /><path id="971" transform="matrix(1 0 0 -1 0 841)" d="M180.588 335.406L182.967 335.406" stroke="#D1D1D1" stroke-width="0.5978" fill="none" /><path id="972" transform="matrix(1 0 0 -1 0 841)" d="M185.346 335.406L187.724 335.406" stroke="#D1D1D1" stroke-width="0.5978" fill="none" /><path id="973" transform="matrix(1 0 0 -1 0 841)" d="M190.103 335.406L192.482 335.406" stroke="#D1D1D1" stroke-width="0.5978" fill="none" /><path id="974" transform="matrix(1 0 0 -1 0 841)" d="M194.861 335.406L197.239 335.406" stroke="#D1D1D1" stroke-width="0.5978" fill="none" /><path id="975" transform="matrix(1 0 0 -1 0 841)" d="M199.618 335.406L201.997 335.406" stroke="#D1D1D1" stroke-width="0.5978" fill="none" /><path id="976" transform="matrix(1 0 0 -1 0 841)" d="M204.376 335.406L206.755 335.406" stroke="#D1D1D1" stroke-width="0.5978" fill="none" /><path id="977" transform="matrix(1 0 0 -1 0 841)" d="M209.133 335.406L211.512 335.406" stroke="#D1D1D1" stroke-width="0.5978" fill="none" /><path id="978" transform="matrix(1 0 0 -1 0 841)" d="M213.891 335.406L216.27 335.406" stroke="#D1D1D1" stroke-width="0.5978" fill="none" /><path id="979" transform="matrix(1 0 0 -1 0 841)" d="M218.648 335.406L221.027 335.406" stroke="#D1D1D1" stroke-width="0.5978" fill="none" /><path id="980" transform="matrix(1 0 0 -1 0 841)" d="M223.406 335.406L225.785 335.406" stroke="#D1D1D1" stroke-width="0.5978" fill="none" /><path id="981" transform="matrix(1 0 0 -1 0 841)" d="M228.164 335.406L230.542 335.406" stroke="#D1D1D1" stroke-width="0.5978" fill="none" /><path id="982" transform="matrix(1 0 0 -1 0 841)" d="M232.921 335.406L235.3 335.406" stroke="#D1D1D1" stroke-width="0.5978" fill="none" /><path id="983" transform="matrix(1 0 0 -1 0 841)" d="M237.679 335.406L240.057 335.406" stroke="#D1D1D1" stroke-width="0.5978" fill="none" /><path id="984" transform="matrix(1 0 0 -1 0 841)" d="M242.436 335.406L244.815 335.406" stroke="#D1D1D1" stroke-width="0.5978" fill="none" /><path id="985" transform="matrix(1 0 0 -1 0 841)" d="M247.194 335.406L249.573 335.406" stroke="#D1D1D1" stroke-width="0.5978" fill="none" /><path id="986" transform="matrix(1 0 0 -1 0 841)" d="M251.951 335.406L254.33 335.406" stroke="#D1D1D1" stroke-width="0.5978" fill="none" /><path id="987" transform="matrix(1 0 0 -1 0 841)" d="M256.709 335.406L259.088 335.406" stroke="#D1D1D1" stroke-width="0.5978" fill="none" /><path id="988" transform="matrix(1 0 0 -1 0 841)" d="M261.466 335.406L263.845 335.406" stroke="#D1D1D1" stroke-width="0.5978" fill="none" /><path id="989" transform="matrix(1 0 0 -1 0 841)" d="M266.224 335.406L268.603 335.406" stroke="#D1D1D1" stroke-width="0.5978" fill="none" /><path id="990" transform="matrix(1 0 0 -1 0 841)" d="M270.981 335.406L273.36 335.406" stroke="#D1D1D1" stroke-width="0.5978" fill="none" /><path id="991" transform="matrix(1 0 0 -1 0 841)" d="M275.739 335.406L278.118 335.406" stroke="#D1D1D1" stroke-width="0.5978" fill="none" /><path id="992" transform="matrix(1 0 0 -1 0 841)" d="M280.497 335.406L282.875 335.406" stroke="#D1D1D1" stroke-width="0.5978" fill="none" /><path id="993" transform="matrix(1 0 0 -1 0 841)" d="M285.254 335.406L287.633 335.406" stroke="#D1D1D1" stroke-width="0.5978" fill="none" /><path id="994" transform="matrix(1 0 0 -1 0 841)" d="M290.012 335.406L292.39 335.406" stroke="#D1D1D1" stroke-width="0.5978" fill="none" /><path id="995" transform="matrix(1 0 0 -1 0 841)" d="M294.769 335.406L297.148 335.406" stroke="#D1D1D1" stroke-width="0.5978" fill="none" /><path id="996" transform="matrix(1 0 0 -1 0 841)" d="M299.527 335.406L301.906 335.406" stroke="#D1D1D1" stroke-width="0.5978" fill="none" /><path id="997" transform="matrix(1 0 0 -1 0 841)" d="M304.284 335.406L306.663 335.406" stroke="#D1D1D1" stroke-width="0.5978" fill="none" /><path id="998" transform="matrix(1 0 0 -1 0 841)" d="M309.042 335.406L311.421 335.406" stroke="#D1D1D1" stroke-width="0.5978" fill="none" /><path id="999" transform="matrix(1 0 0 -1 0 841)" d="M313.799 335.406L316.178 335.406" stroke="#D1D1D1" stroke-width="0.5978" fill="none" /><path id="1000" transform="matrix(1 0 0 -1 0 841)" d="M318.557 335.406L320.936 335.406" stroke="#D1D1D1" stroke-width="0.5978" fill="none" /><path id="1001" transform="matrix(1 0 0 -1 0 841)" d="M323.315 335.406L325.693 335.406" stroke="#D1D1D1" stroke-width="0.5978" fill="none" /><path id="1002" transform="matrix(1 0 0 -1 0 841)" d="M328.072 335.406L330.451 335.406" stroke="#D1D1D1" stroke-width="0.5978" fill="none" /><path id="1003" transform="matrix(1 0 0 -1 0 841)" d="M332.83 335.406L335.208 335.406" stroke="#D1D1D1" stroke-width="0.5978" fill="none" /><path id="1153" transform="matrix(1 0 0 -1 0 841)" d="M28.346 170.798L30.725 170.798" stroke="#D1D1D1" stroke-width="0.5978" fill="none" /><path id="1154" transform="matrix(1 0 0 -1 0 841)" d="M33.104 170.798L35.483 170.798" stroke="#D1D1D1" stroke-width="0.5978" fill="none" /><path id="1155" transform="matrix(1 0 0 -1 0 841)" d="M37.862 170.798L40.24 170.798" stroke="#D1D1D1" stroke-width="0.5978" fill="none" /><path id="1156" transform="matrix(1 0 0 -1 0 841)" d="M42.619 170.798L44.998 170.798" stroke="#D1D1D1" stroke-width="0.5978" fill="none" /><path id="1157" transform="matrix(1 0 0 -1 0 841)" d="M47.377 170.798L49.755 170.798" stroke="#D1D1D1" stroke-width="0.5978" fill="none" /><path id="1158" transform="matrix(1 0 0 -1 0 841)" d="M52.134 170.798L54.513 170.798" stroke="#D1D1D1" stroke-width="0.5978" fill="none" /><path id="1159" transform="matrix(1 0 0 -1 0 841)" d="M56.892 170.798L59.271 170.798" stroke="#D1D1D1" stroke-width="0.5978" fill="none" /><path id="1160" transform="matrix(1 0 0 -1 0 841)" d="M61.649 170.798L64.028 170.798" stroke="#D1D1D1" stroke-width="0.5978" fill="none" /><path id="1161" transform="matrix(1 0 0 -1 0 841)" d="M66.407 170.798L68.786 170.798" stroke="#D1D1D1" stroke-width="0.5978" fill="none" /><path id="1162" transform="matrix(1 0 0 -1 0 841)" d="M71.164 170.798L73.543 170.798" stroke="#D1D1D1" stroke-width="0.5978" fill="none" /><path id="1163" transform="matrix(1 0 0 -1 0 841)" d="M75.922 170.798L78.301 170.798" stroke="#D1D1D1" stroke-width="0.5978" fill="none" /><path id="1164" transform="matrix(1 0 0 -1 0 841)" d="M80.68 170.798L83.058 170.798" stroke="#D1D1D1" stroke-width="0.5978" fill="none" /><path id="1165" transform="matrix(1 0 0 -1 0 841)" d="M85.437 170.798L87.816 170.798" stroke="#D1D1D1" stroke-width="0.5978" fill="none" /><path id="1166" transform="matrix(1 0 0 -1 0 841)" d="M90.195 170.798L92.573 170.798" stroke="#D1D1D1" stroke-width="0.5978" fill="none" /><path id="1167" transform="matrix(1 0 0 -1 0 841)" d="M94.952 170.798L97.331 170.798" stroke="#D1D1D1" stroke-width="0.5978" fill="none" /><path id="1168" transform="matrix(1 0 0 -1 0 841)" d="M99.71 170.798L102.088 170.798" stroke="#D1D1D1" stroke-width="0.5978" fill="none" /><path id="1169" transform="matrix(1 0 0 -1 0 841)" d="M104.467 170.798L106.846 170.798" stroke="#D1D1D1" stroke-width="0.5978" fill="none" /><path id="1170" transform="matrix(1 0 0 -1 0 841)" d="M109.225 170.798L111.604 170.798" stroke="#D1D1D1" stroke-width="0.5978" fill="none" /><path id="1171" transform="matrix(1 0 0 -1 0 841)" d="M113.982 170.798L116.361 170.798" stroke="#D1D1D1" stroke-width="0.5978" fill="none" /><path id="1172" transform="matrix(1 0 0 -1 0 841)" d="M118.74 170.798L121.119 170.798" stroke="#D1D1D1" stroke-width="0.5978" fill="none" /><path id="1173" transform="matrix(1 0 0 -1 0 841)" d="M123.497 170.798L125.876 170.798" stroke="#D1D1D1" stroke-width="0.5978" fill="none" /><path id="1174" transform="matrix(1 0 0 -1 0 841)" d="M128.255 170.798L130.634 170.798" stroke="#D1D1D1" stroke-width="0.5978" fill="none" /><path id="1175" transform="matrix(1 0 0 -1 0 841)" d="M133.013 170.798L135.391 170.798" stroke="#D1D1D1" stroke-width="0.5978" fill="none" /><path id="1176" transform="matrix(1 0 0 -1 0 841)" d="M137.77 170.798L140.149 170.798" stroke="#D1D1D1" stroke-width="0.5978" fill="none" /><path id="1177" transform="matrix(1 0 0 -1 0 841)" d="M142.528 170.798L144.906 170.798" stroke="#D1D1D1" stroke-width="0.5978" fill="none" /><path id="1178" transform="matrix(1 0 0 -1 0 841)" d="M147.285 170.798L149.664 170.798" stroke="#D1D1D1" stroke-width="0.5978" fill="none" /><path id="1179" transform="matrix(1 0 0 -1 0 841)" d="M152.043 170.798L154.422 170.798" stroke="#D1D1D1" stroke-width="0.5978" fill="none" /><path id="1180" transform="matrix(1 0 0 -1 0 841)" d="M156.8 170.798L159.179 170.798" stroke="#D1D1D1" stroke-width="0.5978" fill="none" /><path id="1181" transform="matrix(1 0 0 -1 0 841)" d="M161.558 170.798L163.937 170.798" stroke="#D1D1D1" stroke-width="0.5978" fill="none" /><path id="1182" transform="matrix(1 0 0 -1 0 841)" d="M166.315 170.798L168.694 170.798" stroke="#D1D1D1" stroke-width="0.5978" fill="none" /><path id="1183" transform="matrix(1 0 0 -1 0 841)" d="M171.073 170.798L173.452 170.798" stroke="#D1D1D1" stroke-width="0.5978" fill="none" /><path id="1184" transform="matrix(1 0 0 -1 0 841)" d="M175.83 170.798L178.209 170.798" stroke="#D1D1D1" stroke-width="0.5978" fill="none" /><path id="1185" transform="matrix(1 0 0 -1 0 841)" d="M180.588 170.798L182.967 170.798" stroke="#D1D1D1" stroke-width="0.5978" fill="none" /><path id="1186" transform="matrix(1 0 0 -1 0 841)" d="M185.346 170.798L187.724 170.798" stroke="#D1D1D1" stroke-width="0.5978" fill="none" /><path id="1187" transform="matrix(1 0 0 -1 0 841)" d="M190.103 170.798L192.482 170.798" stroke="#D1D1D1" stroke-width="0.5978" fill="none" /><path id="1188" transform="matrix(1 0 0 -1 0 841)" d="M194.861 170.798L197.239 170.798" stroke="#D1D1D1" stroke-width="0.5978" fill="none" /><path id="1189" transform="matrix(1 0 0 -1 0 841)" d="M199.618 170.798L201.997 170.798" stroke="#D1D1D1" stroke-width="0.5978" fill="none" /><path id="1190" transform="matrix(1 0 0 -1 0 841)" d="M204.376 170.798L206.755 170.798" stroke="#D1D1D1" stroke-width="0.5978" fill="none" /><path id="1191" transform="matrix(1 0 0 -1 0 841)" d="M209.133 170.798L211.512 170.798" stroke="#D1D1D1" stroke-width="0.5978" fill="none" /><path id="1192" transform="matrix(1 0 0 -1 0 841)" d="M213.891 170.798L216.27 170.798" stroke="#D1D1D1" stroke-width="0.5978" fill="none" /><path id="1193" transform="matrix(1 0 0 -1 0 841)" d="M218.648 170.798L221.027 170.798" stroke="#D1D1D1" stroke-width="0.5978" fill="none" /><path id="1194" transform="matrix(1 0 0 -1 0 841)" d="M223.406 170.798L225.785 170.798" stroke="#D1D1D1" stroke-width="0.5978" fill="none" /><path id="1195" transform="matrix(1 0 0 -1 0 841)" d="M228.164 170.798L230.542 170.798" stroke="#D1D1D1" stroke-width="0.5978" fill="none" /><path id="1196" transform="matrix(1 0 0 -1 0 841)" d="M232.921 170.798L235.3 170.798" stroke="#D1D1D1" stroke-width="0.5978" fill="none" /><path id="1197" transform="matrix(1 0 0 -1 0 841)" d="M237.679 170.798L240.057 170.798" stroke="#D1D1D1" stroke-width="0.5978" fill="none" /><path id="1198" transform="matrix(1 0 0 -1 0 841)" d="M242.436 170.798L244.815 170.798" stroke="#D1D1D1" stroke-width="0.5978" fill="none" /><path id="1199" transform="matrix(1 0 0 -1 0 841)" d="M247.194 170.798L249.573 170.798" stroke="#D1D1D1" stroke-width="0.5978" fill="none" /><path id="1200" transform="matrix(1 0 0 -1 0 841)" d="M251.951 170.798L254.33 170.798" stroke="#D1D1D1" stroke-width="0.5978" fill="none" /><path id="1201" transform="matrix(1 0 0 -1 0 841)" d="M256.709 170.798L259.088 170.798" stroke="#D1D1D1" stroke-width="0.5978" fill="none" /><path id="1202" transform="matrix(1 0 0 -1 0 841)" d="M261.466 170.798L263.845 170.798" stroke="#D1D1D1" stroke-width="0.5978" fill="none" /><path id="1203" transform="matrix(1 0 0 -1 0 841)" d="M266.224 170.798L268.603 170.798" stroke="#D1D1D1" stroke-width="0.5978" fill="none" /><path id="1204" transform="matrix(1 0 0 -1 0 841)" d="M270.981 170.798L273.36 170.798" stroke="#D1D1D1" stroke-width="0.5978" fill="none" /><path id="1205" transform="matrix(1 0 0 -1 0 841)" d="M275.739 170.798L278.118 170.798" stroke="#D1D1D1" stroke-width="0.5978" fill="none" /><path id="1206" transform="matrix(1 0 0 -1 0 841)" d="M280.497 170.798L282.875 170.798" stroke="#D1D1D1" stroke-width="0.5978" fill="none" /><path id="1207" transform="matrix(1 0 0 -1 0 841)" d="M285.254 170.798L287.633 170.798" stroke="#D1D1D1" stroke-width="0.5978" fill="none" /><path id="1208" transform="matrix(1 0 0 -1 0 841)" d="M290.012 170.798L292.39 170.798" stroke="#D1D1D1" stroke-width="0.5978" fill="none" /><path id="1209" transform="matrix(1 0 0 -1 0 841)" d="M294.769 170.798L297.148 170.798" stroke="#D1D1D1" stroke-width="0.5978" fill="none" /><path id="1210" transform="matrix(1 0 0 -1 0 841)" d="M299.527 170.798L301.906 170.798" stroke="#D1D1D1" stroke-width="0.5978" fill="none" /><path id="1211" transform="matrix(1 0 0 -1 0 841)" d="M304.284 170.798L306.663 170.798" stroke="#D1D1D1" stroke-width="0.5978" fill="none" /><path id="1212" transform="matrix(1 0 0 -1 0 841)" d="M309.042 170.798L311.421 170.798" stroke="#D1D1D1" stroke-width="0.5978" fill="none" /><path id="1213" transform="matrix(1 0 0 -1 0 841)" d="M313.799 170.798L316.178 170.798" stroke="#D1D1D1" stroke-width="0.5978" fill="none" /><path id="1214" transform="matrix(1 0 0 -1 0 841)" d="M318.557 170.798L320.936 170.798" stroke="#D1D1D1" stroke-width="0.5978" fill="none" /><path id="1215" transform="matrix(1 0 0 -1 0 841)" d="M323.315 170.798L325.693 170.798" stroke="#D1D1D1" stroke-width="0.5978" fill="none" /><path id="1216" transform="matrix(1 0 0 -1 0 841)" d="M328.072 170.798L330.451 170.798" stroke="#D1D1D1" stroke-width="0.5978" fill="none" /><path id="1217" transform="matrix(1 0 0 -1 0 841)" d="M332.83 170.798L335.208 170.798" stroke="#D1D1D1" stroke-width="0.5978" fill="none" /></g></g></svg>