<svg xmlns="http://www.w3.org/2000/svg" xmlns:xlink="http://www.w3.org/1999/xlink" id="body_2" preserveAspectRatio="xMinYMin meet" viewBox="0 0 793 1121"><defs><clipPath id="1"><path id="" clip-rule="evenodd" transform="matrix(1 0 0 1 0 0)" d="M0 841L0 -0.8900146L0 -0.8900146L595.28 -0.8900146L595.28 -0.8900146L595.28 841L595.28 841L0 841z" /></clipPath></defs><g transform="matrix(1.333333 0 0 1.333333 0 0)"><g clip-path="url(#1)"><path id="13" transform="matrix(1 0 0 -1 0 841)" d="M374.173 778.007L566.929 778.007" stroke="#3E0097" stroke-width="1.9925" fill="none" /><path id="46" transform="matrix(1 0 0 -1 0 841)" d="M374.173 733.773L376.552 733.773" stroke="#D1D1D1" stroke-width="0.5978" fill="none" /><path id="47" transform="matrix(1 0 0 -1 0 841)" d="M378.931 733.773L381.309 733.773" stroke="#D1D1D1" stroke-width="0.5978" fill="none" /><path id="48" transform="matrix(1 0 0 -1 0 841)" d="M383.688 733.773L386.067 733.773" stroke="#D1D1D1" stroke-width="0.5978" fill="none" /><path id="49" transform="matrix(1 0 0 -1 0 841)" d="M388.446 733.773L390.825 733.773" stroke="#D1D1D1" stroke-width="0.5978" fill="none" /><path id="50" transform="matrix(1 0 0 -1 0 841)" d="M393.203 733.773L395.582 733.773" stroke="#D1D1D1" stroke-width="0.5978" fill="none" /><path id="51" transform="matrix(1 0 0 -1 0 841)" d="M397.961 733.773L400.34 733.773" stroke="#D1D1D1" stroke-width="0.5978" fill="none" /><path id="52" transform="matrix(1 0 0 -1 0 841)" d="M402.718 733.773L405.097 733.773" stroke="#D1D1D1" stroke-width="0.5978" fill="none" /><path id="53" transform="matrix(1 0 0 -1 0 841)" d="M407.476 733.773L409.855 733.773" stroke="#D1D1D1" stroke-width="0.5978" fill="none" /><path id="54" transform="matrix(1 0 0 -1 0 841)" d="M412.234 733.773L414.612 733.773" stroke="#D1D1D1" stroke-width="0.5978" fill="none" /><path id="55" transform="matrix(1 0 0 -1 0 841)" d="M416.991 733.773L419.37 733.773" stroke="#D1D1D1" stroke-width="0.5978" fill="none" /><path id="56" transform="matrix(1 0 0 -1 0 841)" d="M421.749 733.773L424.127 733.773" stroke="#D1D1D1" stroke-width="0.5978" fill="none" /><path id="57" transform="matrix(1 0 0 -1 0 841)" d="M426.506 733.773L428.885 733.773" stroke="#D1D1D1" stroke-width="0.5978" fill="none" /><path id="58" transform="matrix(1 0 0 -1 0 841)" d="M431.264 733.773L433.643 733.773" stroke="#D1D1D1" stroke-width="0.5978" fill="none" /><path id="59" transform="matrix(1 0 0 -1 0 841)" d="M436.021 733.773L438.4 733.773" stroke="#D1D1D1" stroke-width="0.5978" fill="none" /><path id="60" transform="matrix(1 0 0 -1 0 841)" d="M440.779 733.773L443.158 733.773" stroke="#D1D1D1" stroke-width="0.5978" fill="none" /><path id="61" transform="matrix(1 0 0 -1 0 841)" d="M445.536 733.773L447.915 733.773" stroke="#D1D1D1" stroke-width="0.5978" fill="none" /><path id="62" transform="matrix(1 0 0 -1 0 841)" d="M450.294 733.773L452.673 733.773" stroke="#D1D1D1" stroke-width="0.5978" fill="none" /><path id="63" transform="matrix(1 0 0 -1 0 841)" d="M455.052 733.773L457.43 733.773" stroke="#D1D1D1" stroke-width="0.5978" fill="none" /><path id="64" transform="matrix(1 0 0 -1 0 841)" d="M459.809 733.773L462.188 733.773" stroke="#D1D1D1" stroke-width="0.5978" fill="none" /><path id="65" transform="matrix(1 0 0 -1 0 841)" d="M464.567 733.773L466.945 733.773" stroke="#D1D1D1" stroke-width="0.5978" fill="none" /><path id="66" transform="matrix(1 0 0 -1 0 841)" d="M469.324 733.773L471.703 733.773" stroke="#D1D1D1" stroke-width="0.5978" fill="none" /><path id="67" transform="matrix(1 0 0 -1 0 841)" d="M474.082 733.773L476.46 733.773" stroke="#D1D1D1" stroke-width="0.5978" fill="none" /><path id="68" transform="matrix(1 0 0 -1 0 841)" d="M478.839 733.773L481.218 733.773" stroke="#D1D1D1" stroke-width="0.5978" fill="none" /><path id="69" transform="matrix(1 0 0 -1 0 841)" d="M483.597 733.773L485.976 733.773" stroke="#D1D1D1" stroke-width="0.5978" fill="none" /><path id="70" transform="matrix(1 0 0 -1 0 841)" d="M488.354 733.773L490.733 733.773" stroke="#D1D1D1" stroke-width="0.5978" fill="none" /><path id="71" transform="matrix(1 0 0 -1 0 841)" d="M493.112 733.773L495.491 733.773" stroke="#D1D1D1" stroke-width="0.5978" fill="none" /><path id="72" transform="matrix(1 0 0 -1 0 841)" d="M497.869 733.773L500.248 733.773" stroke="#D1D1D1" stroke-width="0.5978" fill="none" /><path id="73" transform="matrix(1 0 0 -1 0 841)" d="M502.627 733.773L505.006 733.773" stroke="#D1D1D1" stroke-width="0.5978" fill="none" /><path id="74" transform="matrix(1 0 0 -1 0 841)" d="M507.385 733.773L509.763 733.773" stroke="#D1D1D1" stroke-width="0.5978" fill="none" /><path id="75" transform="matrix(1 0 0 -1 0 841)" d="M512.142 733.773L514.521 733.773" stroke="#D1D1D1" stroke-width="0.5978" fill="none" /><path id="76" transform="matrix(1 0 0 -1 0 841)" d="M516.9 733.773L519.278 733.773" stroke="#D1D1D1" stroke-width="0.5978" fill="none" /><path id="77" transform="matrix(1 0 0 -1 0 841)" d="M521.657 733.773L524.036 733.773" stroke="#D1D1D1" stroke-width="0.5978" fill="none" /><path id="78" transform="matrix(1 0 0 -1 0 841)" d="M526.415 733.773L528.794 733.773" stroke="#D1D1D1" stroke-width="0.5978" fill="none" /><path id="79" transform="matrix(1 0 0 -1 0 841)" d="M531.172 733.773L533.551 733.773" stroke="#D1D1D1" stroke-width="0.5978" fill="none" /><path id="80" transform="matrix(1 0 0 -1 0 841)" d="M535.93 733.773L538.309 733.773" stroke="#D1D1D1" stroke-width="0.5978" fill="none" /><path id="81" transform="matrix(1 0 0 -1 0 841)" d="M540.687 733.773L543.066 733.773" stroke="#D1D1D1" stroke-width="0.5978" fill="none" /><path id="82" transform="matrix(1 0 0 -1 0 841)" d="M545.445 733.773L547.824 733.773" stroke="#D1D1D1" stroke-width="0.5978" fill="none" /><path id="83" transform="matrix(1 0 0 -1 0 841)" d="M550.202 733.773L552.581 733.773" stroke="#D1D1D1" stroke-width="0.5978" fill="none" /><path id="84" transform="matrix(1 0 0 -1 0 841)" d="M554.96 733.773L557.339 733.773" stroke="#D1D1D1" stroke-width="0.5978" fill="none" /><path id="85" transform="matrix(1 0 0 -1 0 841)" d="M559.718 733.773L562.096 733.773" stroke="#D1D1D1" stroke-width="0.5978" fill="none" /><path id="112" transform="matrix(1 0 0 -1 0 841)" d="M374.173 690.236L376.552 690.236" stroke="#D1D1D1" stroke-width="0.5978" fill="none" /><path id="113" transform="matrix(1 0 0 -1 0 841)" d="M378.931 690.236L381.309 690.236" stroke="#D1D1D1" stroke-width="0.5978" fill="none" /><path id="114" transform="matrix(1 0 0 -1 0 841)" d="M383.688 690.236L386.067 690.236" stroke="#D1D1D1" stroke-width="0.5978" fill="none" /><path id="115" transform="matrix(1 0 0 -1 0 841)" d="M388.446 690.236L390.825 690.236" stroke="#D1D1D1" stroke-width="0.5978" fill="none" /><path id="116" transform="matrix(1 0 0 -1 0 841)" d="M393.203 690.236L395.582 690.236" stroke="#D1D1D1" stroke-width="0.5978" fill="none" /><path id="117" transform="matrix(1 0 0 -1 0 841)" d="M397.961 690.236L400.34 690.236" stroke="#D1D1D1" stroke-width="0.5978" fill="none" /><path id="118" transform="matrix(1 0 0 -1 0 841)" d="M402.718 690.236L405.097 690.236" stroke="#D1D1D1" stroke-width="0.5978" fill="none" /><path id="119" transform="matrix(1 0 0 -1 0 841)" d="M407.476 690.236L409.855 690.236" stroke="#D1D1D1" stroke-width="0.5978" fill="none" /><path id="120" transform="matrix(1 0 0 -1 0 841)" d="M412.234 690.236L414.612 690.236" stroke="#D1D1D1" stroke-width="0.5978" fill="none" /><path id="121" transform="matrix(1 0 0 -1 0 841)" d="M416.991 690.236L419.37 690.236" stroke="#D1D1D1" stroke-width="0.5978" fill="none" /><path id="122" transform="matrix(1 0 0 -1 0 841)" d="M421.749 690.236L424.127 690.236" stroke="#D1D1D1" stroke-width="0.5978" fill="none" /><path id="123" transform="matrix(1 0 0 -1 0 841)" d="M426.506 690.236L428.885 690.236" stroke="#D1D1D1" stroke-width="0.5978" fill="none" /><path id="124" transform="matrix(1 0 0 -1 0 841)" d="M431.264 690.236L433.643 690.236" stroke="#D1D1D1" stroke-width="0.5978" fill="none" /><path id="125" transform="matrix(1 0 0 -1 0 841)" d="M436.021 690.236L438.4 690.236" stroke="#D1D1D1" stroke-width="0.5978" fill="none" /><path id="126" transform="matrix(1 0 0 -1 0 841)" d="M440.779 690.236L443.158 690.236" stroke="#D1D1D1" stroke-width="0.5978" fill="none" /><path id="127" transform="matrix(1 0 0 -1 0 841)" d="M445.536 690.236L447.915 690.236" stroke="#D1D1D1" stroke-width="0.5978" fill="none" /><path id="128" transform="matrix(1 0 0 -1 0 841)" d="M450.294 690.236L452.673 690.236" stroke="#D1D1D1" stroke-width="0.5978" fill="none" /><path id="129" transform="matrix(1 0 0 -1 0 841)" d="M455.052 690.236L457.43 690.236" stroke="#D1D1D1" stroke-width="0.5978" fill="none" /><path id="130" transform="matrix(1 0 0 -1 0 841)" d="M459.809 690.236L462.188 690.236" stroke="#D1D1D1" stroke-width="0.5978" fill="none" /><path id="131" transform="matrix(1 0 0 -1 0 841)" d="M464.567 690.236L466.945 690.236" stroke="#D1D1D1" stroke-width="0.5978" fill="none" /><path id="132" transform="matrix(1 0 0 -1 0 841)" d="M469.324 690.236L471.703 690.236" stroke="#D1D1D1" stroke-width="0.5978" fill="none" /><path id="133" transform="matrix(1 0 0 -1 0 841)" d="M474.082 690.236L476.46 690.236" stroke="#D1D1D1" stroke-width="0.5978" fill="none" /><path id="134" transform="matrix(1 0 0 -1 0 841)" d="M478.839 690.236L481.218 690.236" stroke="#D1D1D1" stroke-width="0.5978" fill="none" /><path id="135" transform="matrix(1 0 0 -1 0 841)" d="M483.597 690.236L485.976 690.236" stroke="#D1D1D1" stroke-width="0.5978" fill="none" /><path id="136" transform="matrix(1 0 0 -1 0 841)" d="M488.354 690.236L490.733 690.236" stroke="#D1D1D1" stroke-width="0.5978" fill="none" /><path id="137" transform="matrix(1 0 0 -1 0 841)" d="M493.112 690.236L495.491 690.236" stroke="#D1D1D1" stroke-width="0.5978" fill="none" /><path id="138" transform="matrix(1 0 0 -1 0 841)" d="M497.869 690.236L500.248 690.236" stroke="#D1D1D1" stroke-width="0.5978" fill="none" /><path id="139" transform="matrix(1 0 0 -1 0 841)" d="M502.627 690.236L505.006 690.236" stroke="#D1D1D1" stroke-width="0.5978" fill="none" /><path id="140" transform="matrix(1 0 0 -1 0 841)" d="M507.385 690.236L509.763 690.236" stroke="#D1D1D1" stroke-width="0.5978" fill="none" /><path id="141" transform="matrix(1 0 0 -1 0 841)" d="M512.142 690.236L514.521 690.236" stroke="#D1D1D1" stroke-width="0.5978" fill="none" /><path id="142" transform="matrix(1 0 0 -1 0 841)" d="M516.9 690.236L519.278 690.236" stroke="#D1D1D1" stroke-width="0.5978" fill="none" /><path id="143" transform="matrix(1 0 0 -1 0 841)" d="M521.657 690.236L524.036 690.236" stroke="#D1D1D1" stroke-width="0.5978" fill="none" /><path id="144" transform="matrix(1 0 0 -1 0 841)" d="M526.415 690.236L528.794 690.236" stroke="#D1D1D1" stroke-width="0.5978" fill="none" /><path id="145" transform="matrix(1 0 0 -1 0 841)" d="M531.172 690.236L533.551 690.236" stroke="#D1D1D1" stroke-width="0.5978" fill="none" /><path id="146" transform="matrix(1 0 0 -1 0 841)" d="M535.93 690.236L538.309 690.236" stroke="#D1D1D1" stroke-width="0.5978" fill="none" /><path id="147" transform="matrix(1 0 0 -1 0 841)" d="M540.687 690.236L543.066 690.236" stroke="#D1D1D1" stroke-width="0.5978" fill="none" /><path id="148" transform="matrix(1 0 0 -1 0 841)" d="M545.445 690.236L547.824 690.236" stroke="#D1D1D1" stroke-width="0.5978" fill="none" /><path id="149" transform="matrix(1 0 0 -1 0 841)" d="M550.202 690.236L552.581 690.236" stroke="#D1D1D1" stroke-width="0.5978" fill="none" /><path id="150" transform="matrix(1 0 0 -1 0 841)" d="M554.96 690.236L557.339 690.236" stroke="#D1D1D1" stroke-width="0.5978" fill="none" /><path id="151" transform="matrix(1 0 0 -1 0 841)" d="M559.718 690.236L562.096 690.236" stroke="#D1D1D1" stroke-width="0.5978" fill="none" /><path id="198" transform="matrix(1 0 0 -1 0 841)" d="M374.173 632.055L376.552 632.055" stroke="#D1D1D1" stroke-width="0.5978" fill="none" /><path id="199" transform="matrix(1 0 0 -1 0 841)" d="M378.931 632.055L381.309 632.055" stroke="#D1D1D1" stroke-width="0.5978" fill="none" /><path id="200" transform="matrix(1 0 0 -1 0 841)" d="M383.688 632.055L386.067 632.055" stroke="#D1D1D1" stroke-width="0.5978" fill="none" /><path id="201" transform="matrix(1 0 0 -1 0 841)" d="M388.446 632.055L390.825 632.055" stroke="#D1D1D1" stroke-width="0.5978" fill="none" /><path id="202" transform="matrix(1 0 0 -1 0 841)" d="M393.203 632.055L395.582 632.055" stroke="#D1D1D1" stroke-width="0.5978" fill="none" /><path id="203" transform="matrix(1 0 0 -1 0 841)" d="M397.961 632.055L400.34 632.055" stroke="#D1D1D1" stroke-width="0.5978" fill="none" /><path id="204" transform="matrix(1 0 0 -1 0 841)" d="M402.718 632.055L405.097 632.055" stroke="#D1D1D1" stroke-width="0.5978" fill="none" /><path id="205" transform="matrix(1 0 0 -1 0 841)" d="M407.476 632.055L409.855 632.055" stroke="#D1D1D1" stroke-width="0.5978" fill="none" /><path id="206" transform="matrix(1 0 0 -1 0 841)" d="M412.234 632.055L414.612 632.055" stroke="#D1D1D1" stroke-width="0.5978" fill="none" /><path id="207" transform="matrix(1 0 0 -1 0 841)" d="M416.991 632.055L419.37 632.055" stroke="#D1D1D1" stroke-width="0.5978" fill="none" /><path id="208" transform="matrix(1 0 0 -1 0 841)" d="M421.749 632.055L424.127 632.055" stroke="#D1D1D1" stroke-width="0.5978" fill="none" /><path id="209" transform="matrix(1 0 0 -1 0 841)" d="M426.506 632.055L428.885 632.055" stroke="#D1D1D1" stroke-width="0.5978" fill="none" /><path id="210" transform="matrix(1 0 0 -1 0 841)" d="M431.264 632.055L433.643 632.055" stroke="#D1D1D1" stroke-width="0.5978" fill="none" /><path id="211" transform="matrix(1 0 0 -1 0 841)" d="M436.021 632.055L438.4 632.055" stroke="#D1D1D1" stroke-width="0.5978" fill="none" /><path id="212" transform="matrix(1 0 0 -1 0 841)" d="M440.779 632.055L443.158 632.055" stroke="#D1D1D1" stroke-width="0.5978" fill="none" /><path id="213" transform="matrix(1 0 0 -1 0 841)" d="M445.536 632.055L447.915 632.055" stroke="#D1D1D1" stroke-width="0.5978" fill="none" /><path id="214" transform="matrix(1 0 0 -1 0 841)" d="M450.294 632.055L452.673 632.055" stroke="#D1D1D1" stroke-width="0.5978" fill="none" /><path id="215" transform="matrix(1 0 0 -1 0 841)" d="M455.052 632.055L457.43 632.055" stroke="#D1D1D1" stroke-width="0.5978" fill="none" /><path id="216" transform="matrix(1 0 0 -1 0 841)" d="M459.809 632.055L462.188 632.055" stroke="#D1D1D1" stroke-width="0.5978" fill="none" /><path id="217" transform="matrix(1 0 0 -1 0 841)" d="M464.567 632.055L466.945 632.055" stroke="#D1D1D1" stroke-width="0.5978" fill="none" /><path id="218" transform="matrix(1 0 0 -1 0 841)" d="M469.324 632.055L471.703 632.055" stroke="#D1D1D1" stroke-width="0.5978" fill="none" /><path id="219" transform="matrix(1 0 0 -1 0 841)" d="M474.082 632.055L476.46 632.055" stroke="#D1D1D1" stroke-width="0.5978" fill="none" /><path id="220" transform="matrix(1 0 0 -1 0 841)" d="M478.839 632.055L481.218 632.055" stroke="#D1D1D1" stroke-width="0.5978" fill="none" /><path id="221" transform="matrix(1 0 0 -1 0 841)" d="M483.597 632.055L485.976 632.055" stroke="#D1D1D1" stroke-width="0.5978" fill="none" /><path id="222" transform="matrix(1 0 0 -1 0 841)" d="M488.354 632.055L490.733 632.055" stroke="#D1D1D1" stroke-width="0.5978" fill="none" /><path id="223" transform="matrix(1 0 0 -1 0 841)" d="M493.112 632.055L495.491 632.055" stroke="#D1D1D1" stroke-width="0.5978" fill="none" /><path id="224" transform="matrix(1 0 0 -1 0 841)" d="M497.869 632.055L500.248 632.055" stroke="#D1D1D1" stroke-width="0.5978" fill="none" /><path id="225" transform="matrix(1 0 0 -1 0 841)" d="M502.627 632.055L505.006 632.055" stroke="#D1D1D1" stroke-width="0.5978" fill="none" /><path id="226" transform="matrix(1 0 0 -1 0 841)" d="M507.385 632.055L509.763 632.055" stroke="#D1D1D1" stroke-width="0.5978" fill="none" /><path id="227" transform="matrix(1 0 0 -1 0 841)" d="M512.142 632.055L514.521 632.055" stroke="#D1D1D1" stroke-width="0.5978" fill="none" /><path id="228" transform="matrix(1 0 0 -1 0 841)" d="M516.9 632.055L519.278 632.055" stroke="#D1D1D1" stroke-width="0.5978" fill="none" /><path id="229" transform="matrix(1 0 0 -1 0 841)" d="M521.657 632.055L524.036 632.055" stroke="#D1D1D1" stroke-width="0.5978" fill="none" /><path id="230" transform="matrix(1 0 0 -1 0 841)" d="M526.415 632.055L528.794 632.055" stroke="#D1D1D1" stroke-width="0.5978" fill="none" /><path id="231" transform="matrix(1 0 0 -1 0 841)" d="M531.172 632.055L533.551 632.055" stroke="#D1D1D1" stroke-width="0.5978" fill="none" /><path id="232" transform="matrix(1 0 0 -1 0 841)" d="M535.93 632.055L538.309 632.055" stroke="#D1D1D1" stroke-width="0.5978" fill="none" /><path id="233" transform="matrix(1 0 0 -1 0 841)" d="M540.687 632.055L543.066 632.055" stroke="#D1D1D1" stroke-width="0.5978" fill="none" /><path id="234" transform="matrix(1 0 0 -1 0 841)" d="M545.445 632.055L547.824 632.055" stroke="#D1D1D1" stroke-width="0.5978" fill="none" /><path id="235" transform="matrix(1 0 0 -1 0 841)" d="M550.202 632.055L552.581 632.055" stroke="#D1D1D1" stroke-width="0.5978" fill="none" /><path id="236" transform="matrix(1 0 0 -1 0 841)" d="M554.96 632.055L557.339 632.055" stroke="#D1D1D1" stroke-width="0.5978" fill="none" /><path id="237" transform="matrix(1 0 0 -1 0 841)" d="M559.718 632.055L562.096 632.055" stroke="#D1D1D1" stroke-width="0.5978" fill="none" /><path id="300" transform="matrix(1 0 0 -1 0 841)" d="M374.173 558.331L376.552 558.331" stroke="#D1D1D1" stroke-width="0.5978" fill="none" /><path id="301" transform="matrix(1 0 0 -1 0 841)" d="M378.931 558.331L381.309 558.331" stroke="#D1D1D1" stroke-width="0.5978" fill="none" /><path id="302" transform="matrix(1 0 0 -1 0 841)" d="M383.688 558.331L386.067 558.331" stroke="#D1D1D1" stroke-width="0.5978" fill="none" /><path id="303" transform="matrix(1 0 0 -1 0 841)" d="M388.446 558.331L390.825 558.331" stroke="#D1D1D1" stroke-width="0.5978" fill="none" /><path id="304" transform="matrix(1 0 0 -1 0 841)" d="M393.203 558.331L395.582 558.331" stroke="#D1D1D1" stroke-width="0.5978" fill="none" /><path id="305" transform="matrix(1 0 0 -1 0 841)" d="M397.961 558.331L400.34 558.331" stroke="#D1D1D1" stroke-width="0.5978" fill="none" /><path id="306" transform="matrix(1 0 0 -1 0 841)" d="M402.718 558.331L405.097 558.331" stroke="#D1D1D1" stroke-width="0.5978" fill="none" /><path id="307" transform="matrix(1 0 0 -1 0 841)" d="M407.476 558.331L409.855 558.331" stroke="#D1D1D1" stroke-width="0.5978" fill="none" /><path id="308" transform="matrix(1 0 0 -1 0 841)" d="M412.234 558.331L414.612 558.331" stroke="#D1D1D1" stroke-width="0.5978" fill="none" /><path id="309" transform="matrix(1 0 0 -1 0 841)" d="M416.991 558.331L419.37 558.331" stroke="#D1D1D1" stroke-width="0.5978" fill="none" /><path id="310" transform="matrix(1 0 0 -1 0 841)" d="M421.749 558.331L424.127 558.331" stroke="#D1D1D1" stroke-width="0.5978" fill="none" /><path id="311" transform="matrix(1 0 0 -1 0 841)" d="M426.506 558.331L428.885 558.331" stroke="#D1D1D1" stroke-width="0.5978" fill="none" /><path id="312" transform="matrix(1 0 0 -1 0 841)" d="M431.264 558.331L433.643 558.331" stroke="#D1D1D1" stroke-width="0.5978" fill="none" /><path id="313" transform="matrix(1 0 0 -1 0 841)" d="M436.021 558.331L438.4 558.331" stroke="#D1D1D1" stroke-width="0.5978" fill="none" /><path id="314" transform="matrix(1 0 0 -1 0 841)" d="M440.779 558.331L443.158 558.331" stroke="#D1D1D1" stroke-width="0.5978" fill="none" /><path id="315" transform="matrix(1 0 0 -1 0 841)" d="M445.536 558.331L447.915 558.331" stroke="#D1D1D1" stroke-width="0.5978" fill="none" /><path id="316" transform="matrix(1 0 0 -1 0 841)" d="M450.294 558.331L452.673 558.331" stroke="#D1D1D1" stroke-width="0.5978" fill="none" /><path id="317" transform="matrix(1 0 0 -1 0 841)" d="M455.052 558.331L457.43 558.331" stroke="#D1D1D1" stroke-width="0.5978" fill="none" /><path id="318" transform="matrix(1 0 0 -1 0 841)" d="M459.809 558.331L462.188 558.331" stroke="#D1D1D1" stroke-width="0.5978" fill="none" /><path id="319" transform="matrix(1 0 0 -1 0 841)" d="M464.567 558.331L466.945 558.331" stroke="#D1D1D1" stroke-width="0.5978" fill="none" /><path id="320" transform="matrix(1 0 0 -1 0 841)" d="M469.324 558.331L471.703 558.331" stroke="#D1D1D1" stroke-width="0.5978" fill="none" /><path id="321" transform="matrix(1 0 0 -1 0 841)" d="M474.082 558.331L476.46 558.331" stroke="#D1D1D1" stroke-width="0.5978" fill="none" /><path id="322" transform="matrix(1 0 0 -1 0 841)" d="M478.839 558.331L481.218 558.331" stroke="#D1D1D1" stroke-width="0.5978" fill="none" /><path id="323" transform="matrix(1 0 0 -1 0 841)" d="M483.597 558.331L485.976 558.331" stroke="#D1D1D1" stroke-width="0.5978" fill="none" /><path id="324" transform="matrix(1 0 0 -1 0 841)" d="M488.354 558.331L490.733 558.331" stroke="#D1D1D1" stroke-width="0.5978" fill="none" /><path id="325" transform="matrix(1 0 0 -1 0 841)" d="M493.112 558.331L495.491 558.331" stroke="#D1D1D1" stroke-width="0.5978" fill="none" /><path id="326" transform="matrix(1 0 0 -1 0 841)" d="M497.869 558.331L500.248 558.331" stroke="#D1D1D1" stroke-width="0.5978" fill="none" /><path id="327" transform="matrix(1 0 0 -1 0 841)" d="M502.627 558.331L505.006 558.331" stroke="#D1D1D1" stroke-width="0.5978" fill="none" /><path id="328" transform="matrix(1 0 0 -1 0 841)" d="M507.385 558.331L509.763 558.331" stroke="#D1D1D1" stroke-width="0.5978" fill="none" /><path id="329" transform="matrix(1 0 0 -1 0 841)" d="M512.142 558.331L514.521 558.331" stroke="#D1D1D1" stroke-width="0.5978" fill="none" /><path id="330" transform="matrix(1 0 0 -1 0 841)" d="M516.9 558.331L519.278 558.331" stroke="#D1D1D1" stroke-width="0.5978" fill="none" /><path id="331" transform="matrix(1 0 0 -1 0 841)" d="M521.657 558.331L524.036 558.331" stroke="#D1D1D1" stroke-width="0.5978" fill="none" /><path id="332" transform="matrix(1 0 0 -1 0 841)" d="M526.415 558.331L528.794 558.331" stroke="#D1D1D1" stroke-width="0.5978" fill="none" /><path id="333" transform="matrix(1 0 0 -1 0 841)" d="M531.172 558.331L533.551 558.331" stroke="#D1D1D1" stroke-width="0.5978" fill="none" /><path id="334" transform="matrix(1 0 0 -1 0 841)" d="M535.93 558.331L538.309 558.331" stroke="#D1D1D1" stroke-width="0.5978" fill="none" /><path id="335" transform="matrix(1 0 0 -1 0 841)" d="M540.687 558.331L543.066 558.331" stroke="#D1D1D1" stroke-width="0.5978" fill="none" /><path id="336" transform="matrix(1 0 0 -1 0 841)" d="M545.445 558.331L547.824 558.331" stroke="#D1D1D1" stroke-width="0.5978" fill="none" /><path id="337" transform="matrix(1 0 0 -1 0 841)" d="M550.202 558.331L552.581 558.331" stroke="#D1D1D1" stroke-width="0.5978" fill="none" /><path id="338" transform="matrix(1 0 0 -1 0 841)" d="M554.96 558.331L557.339 558.331" stroke="#D1D1D1" stroke-width="0.5978" fill="none" /><path id="339" transform="matrix(1 0 0 -1 0 841)" d="M559.718 558.331L562.096 558.331" stroke="#D1D1D1" stroke-width="0.5978" fill="none" /><path id="410" transform="matrix(1 0 0 -1 0 841)" d="M374.173 484.607L376.552 484.607" stroke="#D1D1D1" stroke-width="0.5978" fill="none" /><path id="411" transform="matrix(1 0 0 -1 0 841)" d="M378.931 484.607L381.309 484.607" stroke="#D1D1D1" stroke-width="0.5978" fill="none" /><path id="412" transform="matrix(1 0 0 -1 0 841)" d="M383.688 484.607L386.067 484.607" stroke="#D1D1D1" stroke-width="0.5978" fill="none" /><path id="413" transform="matrix(1 0 0 -1 0 841)" d="M388.446 484.607L390.825 484.607" stroke="#D1D1D1" stroke-width="0.5978" fill="none" /><path id="414" transform="matrix(1 0 0 -1 0 841)" d="M393.203 484.607L395.582 484.607" stroke="#D1D1D1" stroke-width="0.5978" fill="none" /><path id="415" transform="matrix(1 0 0 -1 0 841)" d="M397.961 484.607L400.34 484.607" stroke="#D1D1D1" stroke-width="0.5978" fill="none" /><path id="416" transform="matrix(1 0 0 -1 0 841)" d="M402.718 484.607L405.097 484.607" stroke="#D1D1D1" stroke-width="0.5978" fill="none" /><path id="417" transform="matrix(1 0 0 -1 0 841)" d="M407.476 484.607L409.855 484.607" stroke="#D1D1D1" stroke-width="0.5978" fill="none" /><path id="418" transform="matrix(1 0 0 -1 0 841)" d="M412.234 484.607L414.612 484.607" stroke="#D1D1D1" stroke-width="0.5978" fill="none" /><path id="419" transform="matrix(1 0 0 -1 0 841)" d="M416.991 484.607L419.37 484.607" stroke="#D1D1D1" stroke-width="0.5978" fill="none" /><path id="420" transform="matrix(1 0 0 -1 0 841)" d="M421.749 484.607L424.127 484.607" stroke="#D1D1D1" stroke-width="0.5978" fill="none" /><path id="421" transform="matrix(1 0 0 -1 0 841)" d="M426.506 484.607L428.885 484.607" stroke="#D1D1D1" stroke-width="0.5978" fill="none" /><path id="422" transform="matrix(1 0 0 -1 0 841)" d="M431.264 484.607L433.643 484.607" stroke="#D1D1D1" stroke-width="0.5978" fill="none" /><path id="423" transform="matrix(1 0 0 -1 0 841)" d="M436.021 484.607L438.4 484.607" stroke="#D1D1D1" stroke-width="0.5978" fill="none" /><path id="424" transform="matrix(1 0 0 -1 0 841)" d="M440.779 484.607L443.158 484.607" stroke="#D1D1D1" stroke-width="0.5978" fill="none" /><path id="425" transform="matrix(1 0 0 -1 0 841)" d="M445.536 484.607L447.915 484.607" stroke="#D1D1D1" stroke-width="0.5978" fill="none" /><path id="426" transform="matrix(1 0 0 -1 0 841)" d="M450.294 484.607L452.673 484.607" stroke="#D1D1D1" stroke-width="0.5978" fill="none" /><path id="427" transform="matrix(1 0 0 -1 0 841)" d="M455.052 484.607L457.43 484.607" stroke="#D1D1D1" stroke-width="0.5978" fill="none" /><path id="428" transform="matrix(1 0 0 -1 0 841)" d="M459.809 484.607L462.188 484.607" stroke="#D1D1D1" stroke-width="0.5978" fill="none" /><path id="429" transform="matrix(1 0 0 -1 0 841)" d="M464.567 484.607L466.945 484.607" stroke="#D1D1D1" stroke-width="0.5978" fill="none" /><path id="430" transform="matrix(1 0 0 -1 0 841)" d="M469.324 484.607L471.703 484.607" stroke="#D1D1D1" stroke-width="0.5978" fill="none" /><path id="431" transform="matrix(1 0 0 -1 0 841)" d="M474.082 484.607L476.46 484.607" stroke="#D1D1D1" stroke-width="0.5978" fill="none" /><path id="432" transform="matrix(1 0 0 -1 0 841)" d="M478.839 484.607L481.218 484.607" stroke="#D1D1D1" stroke-width="0.5978" fill="none" /><path id="433" transform="matrix(1 0 0 -1 0 841)" d="M483.597 484.607L485.976 484.607" stroke="#D1D1D1" stroke-width="0.5978" fill="none" /><path id="434" transform="matrix(1 0 0 -1 0 841)" d="M488.354 484.607L490.733 484.607" stroke="#D1D1D1" stroke-width="0.5978" fill="none" /><path id="435" transform="matrix(1 0 0 -1 0 841)" d="M493.112 484.607L495.491 484.607" stroke="#D1D1D1" stroke-width="0.5978" fill="none" /><path id="436" transform="matrix(1 0 0 -1 0 841)" d="M497.869 484.607L500.248 484.607" stroke="#D1D1D1" stroke-width="0.5978" fill="none" /><path id="437" transform="matrix(1 0 0 -1 0 841)" d="M502.627 484.607L505.006 484.607" stroke="#D1D1D1" stroke-width="0.5978" fill="none" /><path id="438" transform="matrix(1 0 0 -1 0 841)" d="M507.385 484.607L509.763 484.607" stroke="#D1D1D1" stroke-width="0.5978" fill="none" /><path id="439" transform="matrix(1 0 0 -1 0 841)" d="M512.142 484.607L514.521 484.607" stroke="#D1D1D1" stroke-width="0.5978" fill="none" /><path id="440" transform="matrix(1 0 0 -1 0 841)" d="M516.9 484.607L519.278 484.607" stroke="#D1D1D1" stroke-width="0.5978" fill="none" /><path id="441" transform="matrix(1 0 0 -1 0 841)" d="M521.657 484.607L524.036 484.607" stroke="#D1D1D1" stroke-width="0.5978" fill="none" /><path id="442" transform="matrix(1 0 0 -1 0 841)" d="M526.415 484.607L528.794 484.607" stroke="#D1D1D1" stroke-width="0.5978" fill="none" /><path id="443" transform="matrix(1 0 0 -1 0 841)" d="M531.172 484.607L533.551 484.607" stroke="#D1D1D1" stroke-width="0.5978" fill="none" /><path id="444" transform="matrix(1 0 0 -1 0 841)" d="M535.93 484.607L538.309 484.607" stroke="#D1D1D1" stroke-width="0.5978" fill="none" /><path id="445" transform="matrix(1 0 0 -1 0 841)" d="M540.687 484.607L543.066 484.607" stroke="#D1D1D1" stroke-width="0.5978" fill="none" /><path id="446" transform="matrix(1 0 0 -1 0 841)" d="M545.445 484.607L547.824 484.607" stroke="#D1D1D1" stroke-width="0.5978" fill="none" /><path id="447" transform="matrix(1 0 0 -1 0 841)" d="M550.202 484.607L552.581 484.607" stroke="#D1D1D1" stroke-width="0.5978" fill="none" /><path id="448" transform="matrix(1 0 0 -1 0 841)" d="M554.96 484.607L557.339 484.607" stroke="#D1D1D1" stroke-width="0.5978" fill="none" /><path id="449" transform="matrix(1 0 0 -1 0 841)" d="M559.718 484.607L562.096 484.607" stroke="#D1D1D1" stroke-width="0.5978" fill="none" /><path id="458" transform="matrix(1 0 0 -1 0 841)" d="M28.346 771.165L340.157 771.165" stroke="#3E0097" stroke-width="1.9925" fill="none" /><path id="600" transform="matrix(1 0 0 -1 0 841)" d="M28.346 605.859L30.725 605.859" stroke="#D1D1D1" stroke-width="0.5978" fill="none" /><path id="601" transform="matrix(1 0 0 -1 0 841)" d="M33.104 605.859L35.483 605.859" stroke="#D1D1D1" stroke-width="0.5978" fill="none" /><path id="602" transform="matrix(1 0 0 -1 0 841)" d="M37.862 605.859L40.24 605.859" stroke="#D1D1D1" stroke-width="0.5978" fill="none" /><path id="603" transform="matrix(1 0 0 -1 0 841)" d="M42.619 605.859L44.998 605.859" stroke="#D1D1D1" stroke-width="0.5978" fill="none" /><path id="604" transform="matrix(1 0 0 -1 0 841)" d="M47.377 605.859L49.755 605.859" stroke="#D1D1D1" stroke-width="0.5978" fill="none" /><path id="605" transform="matrix(1 0 0 -1 0 841)" d="M52.134 605.859L54.513 605.859" stroke="#D1D1D1" stroke-width="0.5978" fill="none" /><path id="606" transform="matrix(1 0 0 -1 0 841)" d="M56.892 605.859L59.271 605.859" stroke="#D1D1D1" stroke-width="0.5978" fill="none" /><path id="607" transform="matrix(1 0 0 -1 0 841)" d="M61.649 605.859L64.028 605.859" stroke="#D1D1D1" stroke-width="0.5978" fill="none" /><path id="608" transform="matrix(1 0 0 -1 0 841)" d="M66.407 605.859L68.786 605.859" stroke="#D1D1D1" stroke-width="0.5978" fill="none" /><path id="609" transform="matrix(1 0 0 -1 0 841)" d="M71.164 605.859L73.543 605.859" stroke="#D1D1D1" stroke-width="0.5978" fill="none" /><path id="610" transform="matrix(1 0 0 -1 0 841)" d="M75.922 605.859L78.301 605.859" stroke="#D1D1D1" stroke-width="0.5978" fill="none" /><path id="611" transform="matrix(1 0 0 -1 0 841)" d="M80.68 605.859L83.058 605.859" stroke="#D1D1D1" stroke-width="0.5978" fill="none" /><path id="612" transform="matrix(1 0 0 -1 0 841)" d="M85.437 605.859L87.816 605.859" stroke="#D1D1D1" stroke-width="0.5978" fill="none" /><path id="613" transform="matrix(1 0 0 -1 0 841)" d="M90.195 605.859L92.573 605.859" stroke="#D1D1D1" stroke-width="0.5978" fill="none" /><path id="614" transform="matrix(1 0 0 -1 0 841)" d="M94.952 605.859L97.331 605.859" stroke="#D1D1D1" stroke-width="0.5978" fill="none" /><path id="615" transform="matrix(1 0 0 -1 0 841)" d="M99.71 605.859L102.088 605.859" stroke="#D1D1D1" stroke-width="0.5978" fill="none" /><path id="616" transform="matrix(1 0 0 -1 0 841)" d="M104.467 605.859L106.846 605.859" stroke="#D1D1D1" stroke-width="0.5978" fill="none" /><path id="617" transform="matrix(1 0 0 -1 0 841)" d="M109.225 605.859L111.604 605.859" stroke="#D1D1D1" stroke-width="0.5978" fill="none" /><path id="618" transform="matrix(1 0 0 -1 0 841)" d="M113.982 605.859L116.361 605.859" stroke="#D1D1D1" stroke-width="0.5978" fill="none" /><path id="619" transform="matrix(1 0 0 -1 0 841)" d="M118.74 605.859L121.119 605.859" stroke="#D1D1D1" stroke-width="0.5978" fill="none" /><path id="620" transform="matrix(1 0 0 -1 0 841)" d="M123.497 605.859L125.876 605.859" stroke="#D1D1D1" stroke-width="0.5978" fill="none" /><path id="621" transform="matrix(1 0 0 -1 0 841)" d="M128.255 605.859L130.634 605.859" stroke="#D1D1D1" stroke-width="0.5978" fill="none" /><path id="622" transform="matrix(1 0 0 -1 0 841)" d="M133.013 605.859L135.391 605.859" stroke="#D1D1D1" stroke-width="0.5978" fill="none" /><path id="623" transform="matrix(1 0 0 -1 0 841)" d="M137.77 605.859L140.149 605.859" stroke="#D1D1D1" stroke-width="0.5978" fill="none" /><path id="624" transform="matrix(1 0 0 -1 0 841)" d="M142.528 605.859L144.906 605.859" stroke="#D1D1D1" stroke-width="0.5978" fill="none" /><path id="625" transform="matrix(1 0 0 -1 0 841)" d="M147.285 605.859L149.664 605.859" stroke="#D1D1D1" stroke-width="0.5978" fill="none" /><path id="626" transform="matrix(1 0 0 -1 0 841)" d="M152.043 605.859L154.422 605.859" stroke="#D1D1D1" stroke-width="0.5978" fill="none" /><path id="627" transform="matrix(1 0 0 -1 0 841)" d="M156.8 605.859L159.179 605.859" stroke="#D1D1D1" stroke-width="0.5978" fill="none" /><path id="628" transform="matrix(1 0 0 -1 0 841)" d="M161.558 605.859L163.937 605.859" stroke="#D1D1D1" stroke-width="0.5978" fill="none" /><path id="629" transform="matrix(1 0 0 -1 0 841)" d="M166.315 605.859L168.694 605.859" stroke="#D1D1D1" stroke-width="0.5978" fill="none" /><path id="630" transform="matrix(1 0 0 -1 0 841)" d="M171.073 605.859L173.452 605.859" stroke="#D1D1D1" stroke-width="0.5978" fill="none" /><path id="631" transform="matrix(1 0 0 -1 0 841)" d="M175.83 605.859L178.209 605.859" stroke="#D1D1D1" stroke-width="0.5978" fill="none" /><path id="632" transform="matrix(1 0 0 -1 0 841)" d="M180.588 605.859L182.967 605.859" stroke="#D1D1D1" stroke-width="0.5978" fill="none" /><path id="633" transform="matrix(1 0 0 -1 0 841)" d="M185.346 605.859L187.724 605.859" stroke="#D1D1D1" stroke-width="0.5978" fill="none" /><path id="634" transform="matrix(1 0 0 -1 0 841)" d="M190.103 605.859L192.482 605.859" stroke="#D1D1D1" stroke-width="0.5978" fill="none" /><path id="635" transform="matrix(1 0 0 -1 0 841)" d="M194.861 605.859L197.239 605.859" stroke="#D1D1D1" stroke-width="0.5978" fill="none" /><path id="636" transform="matrix(1 0 0 -1 0 841)" d="M199.618 605.859L201.997 605.859" stroke="#D1D1D1" stroke-width="0.5978" fill="none" /><path id="637" transform="matrix(1 0 0 -1 0 841)" d="M204.376 605.859L206.755 605.859" stroke="#D1D1D1" stroke-width="0.5978" fill="none" /><path id="638" transform="matrix(1 0 0 -1 0 841)" d="M209.133 605.859L211.512 605.859" stroke="#D1D1D1" stroke-width="0.5978" fill="none" /><path id="639" transform="matrix(1 0 0 -1 0 841)" d="M213.891 605.859L216.27 605.859" stroke="#D1D1D1" stroke-width="0.5978" fill="none" /><path id="640" transform="matrix(1 0 0 -1 0 841)" d="M218.648 605.859L221.027 605.859" stroke="#D1D1D1" stroke-width="0.5978" fill="none" /><path id="641" transform="matrix(1 0 0 -1 0 841)" d="M223.406 605.859L225.785 605.859" stroke="#D1D1D1" stroke-width="0.5978" fill="none" /><path id="642" transform="matrix(1 0 0 -1 0 841)" d="M228.164 605.859L230.542 605.859" stroke="#D1D1D1" stroke-width="0.5978" fill="none" /><path id="643" transform="matrix(1 0 0 -1 0 841)" d="M232.921 605.859L235.3 605.859" stroke="#D1D1D1" stroke-width="0.5978" fill="none" /><path id="644" transform="matrix(1 0 0 -1 0 841)" d="M237.679 605.859L240.057 605.859" stroke="#D1D1D1" stroke-width="0.5978" fill="none" /><path id="645" transform="matrix(1 0 0 -1 0 841)" d="M242.436 605.859L244.815 605.859" stroke="#D1D1D1" stroke-width="0.5978" fill="none" /><path id="646" transform="matrix(1 0 0 -1 0 841)" d="M247.194 605.859L249.573 605.859" stroke="#D1D1D1" stroke-width="0.5978" fill="none" /><path id="647" transform="matrix(1 0 0 -1 0 841)" d="M251.951 605.859L254.33 605.859" stroke="#D1D1D1" stroke-width="0.5978" fill="none" /><path id="648" transform="matrix(1 0 0 -1 0 841)" d="M256.709 605.859L259.088 605.859" stroke="#D1D1D1" stroke-width="0.5978" fill="none" /><path id="649" transform="matrix(1 0 0 -1 0 841)" d="M261.466 605.859L263.845 605.859" stroke="#D1D1D1" stroke-width="0.5978" fill="none" /><path id="650" transform="matrix(1 0 0 -1 0 841)" d="M266.224 605.859L268.603 605.859" stroke="#D1D1D1" stroke-width="0.5978" fill="none" /><path id="651" transform="matrix(1 0 0 -1 0 841)" d="M270.981 605.859L273.36 605.859" stroke="#D1D1D1" stroke-width="0.5978" fill="none" /><path id="652" transform="matrix(1 0 0 -1 0 841)" d="M275.739 605.859L278.118 605.859" stroke="#D1D1D1" stroke-width="0.5978" fill="none" /><path id="653" transform="matrix(1 0 0 -1 0 841)" d="M280.497 605.859L282.875 605.859" stroke="#D1D1D1" stroke-width="0.5978" fill="none" /><path id="654" transform="matrix(1 0 0 -1 0 841)" d="M285.254 605.859L287.633 605.859" stroke="#D1D1D1" stroke-width="0.5978" fill="none" /><path id="655" transform="matrix(1 0 0 -1 0 841)" d="M290.012 605.859L292.39 605.859" stroke="#D1D1D1" stroke-width="0.5978" fill="none" /><path id="656" transform="matrix(1 0 0 -1 0 841)" d="M294.769 605.859L297.148 605.859" stroke="#D1D1D1" stroke-width="0.5978" fill="none" /><path id="657" transform="matrix(1 0 0 -1 0 841)" d="M299.527 605.859L301.906 605.859" stroke="#D1D1D1" stroke-width="0.5978" fill="none" /><path id="658" transform="matrix(1 0 0 -1 0 841)" d="M304.284 605.859L306.663 605.859" stroke="#D1D1D1" stroke-width="0.5978" fill="none" /><path id="659" transform="matrix(1 0 0 -1 0 841)" d="M309.042 605.859L311.421 605.859" stroke="#D1D1D1" stroke-width="0.5978" fill="none" /><path id="660" transform="matrix(1 0 0 -1 0 841)" d="M313.799 605.859L316.178 605.859" stroke="#D1D1D1" stroke-width="0.5978" fill="none" /><path id="661" transform="matrix(1 0 0 -1 0 841)" d="M318.557 605.859L320.936 605.859" stroke="#D1D1D1" stroke-width="0.5978" fill="none" /><path id="662" transform="matrix(1 0 0 -1 0 841)" d="M323.315 605.859L325.693 605.859" stroke="#D1D1D1" stroke-width="0.5978" fill="none" /><path id="663" transform="matrix(1 0 0 -1 0 841)" d="M328.072 605.859L330.451 605.859" stroke="#D1D1D1" stroke-width="0.5978" fill="none" /><path id="664" transform="matrix(1 0 0 -1 0 841)" d="M332.83 605.859L335.208 605.859" stroke="#D1D1D1" stroke-width="0.5978" fill="none" /><path id="766" transform="matrix(1 0 0 -1 0 841)" d="M28.346 455.498L30.725 455.498" stroke="#D1D1D1" stroke-width="0.5978" fill="none" /><path id="767" transform="matrix(1 0 0 -1 0 841)" d="M33.104 455.498L35.483 455.498" stroke="#D1D1D1" stroke-width="0.5978" fill="none" /><path id="768" transform="matrix(1 0 0 -1 0 841)" d="M37.862 455.498L40.24 455.498" stroke="#D1D1D1" stroke-width="0.5978" fill="none" /><path id="769" transform="matrix(1 0 0 -1 0 841)" d="M42.619 455.498L44.998 455.498" stroke="#D1D1D1" stroke-width="0.5978" fill="none" /><path id="770" transform="matrix(1 0 0 -1 0 841)" d="M47.377 455.498L49.755 455.498" stroke="#D1D1D1" stroke-width="0.5978" fill="none" /><path id="771" transform="matrix(1 0 0 -1 0 841)" d="M52.134 455.498L54.513 455.498" stroke="#D1D1D1" stroke-width="0.5978" fill="none" /><path id="772" transform="matrix(1 0 0 -1 0 841)" d="M56.892 455.498L59.271 455.498" stroke="#D1D1D1" stroke-width="0.5978" fill="none" /><path id="773" transform="matrix(1 0 0 -1 0 841)" d="M61.649 455.498L64.028 455.498" stroke="#D1D1D1" stroke-width="0.5978" fill="none" /><path id="774" transform="matrix(1 0 0 -1 0 841)" d="M66.407 455.498L68.786 455.498" stroke="#D1D1D1" stroke-width="0.5978" fill="none" /><path id="775" transform="matrix(1 0 0 -1 0 841)" d="M71.164 455.498L73.543 455.498" stroke="#D1D1D1" stroke-width="0.5978" fill="none" /><path id="776" transform="matrix(1 0 0 -1 0 841)" d="M75.922 455.498L78.301 455.498" stroke="#D1D1D1" stroke-width="0.5978" fill="none" /><path id="777" transform="matrix(1 0 0 -1 0 841)" d="M80.68 455.498L83.058 455.498" stroke="#D1D1D1" stroke-width="0.5978" fill="none" /><path id="778" transform="matrix(1 0 0 -1 0 841)" d="M85.437 455.498L87.816 455.498" stroke="#D1D1D1" stroke-width="0.5978" fill="none" /><path id="779" transform="matrix(1 0 0 -1 0 841)" d="M90.195 455.498L92.573 455.498" stroke="#D1D1D1" stroke-width="0.5978" fill="none" /><path id="780" transform="matrix(1 0 0 -1 0 841)" d="M94.952 455.498L97.331 455.498" stroke="#D1D1D1" stroke-width="0.5978" fill="none" /><path id="781" transform="matrix(1 0 0 -1 0 841)" d="M99.71 455.498L102.088 455.498" stroke="#D1D1D1" stroke-width="0.5978" fill="none" /><path id="782" transform="matrix(1 0 0 -1 0 841)" d="M104.467 455.498L106.846 455.498" stroke="#D1D1D1" stroke-width="0.5978" fill="none" /><path id="783" transform="matrix(1 0 0 -1 0 841)" d="M109.225 455.498L111.604 455.498" stroke="#D1D1D1" stroke-width="0.5978" fill="none" /><path id="784" transform="matrix(1 0 0 -1 0 841)" d="M113.982 455.498L116.361 455.498" stroke="#D1D1D1" stroke-width="0.5978" fill="none" /><path id="785" transform="matrix(1 0 0 -1 0 841)" d="M118.74 455.498L121.119 455.498" stroke="#D1D1D1" stroke-width="0.5978" fill="none" /><path id="786" transform="matrix(1 0 0 -1 0 841)" d="M123.497 455.498L125.876 455.498" stroke="#D1D1D1" stroke-width="0.5978" fill="none" /><path id="787" transform="matrix(1 0 0 -1 0 841)" d="M128.255 455.498L130.634 455.498" stroke="#D1D1D1" stroke-width="0.5978" fill="none" /><path id="788" transform="matrix(1 0 0 -1 0 841)" d="M133.013 455.498L135.391 455.498" stroke="#D1D1D1" stroke-width="0.5978" fill="none" /><path id="789" transform="matrix(1 0 0 -1 0 841)" d="M137.77 455.498L140.149 455.498" stroke="#D1D1D1" stroke-width="0.5978" fill="none" /><path id="790" transform="matrix(1 0 0 -1 0 841)" d="M142.528 455.498L144.906 455.498" stroke="#D1D1D1" stroke-width="0.5978" fill="none" /><path id="791" transform="matrix(1 0 0 -1 0 841)" d="M147.285 455.498L149.664 455.498" stroke="#D1D1D1" stroke-width="0.5978" fill="none" /><path id="792" transform="matrix(1 0 0 -1 0 841)" d="M152.043 455.498L154.422 455.498" stroke="#D1D1D1" stroke-width="0.5978" fill="none" /><path id="793" transform="matrix(1 0 0 -1 0 841)" d="M156.8 455.498L159.179 455.498" stroke="#D1D1D1" stroke-width="0.5978" fill="none" /><path id="794" transform="matrix(1 0 0 -1 0 841)" d="M161.558 455.498L163.937 455.498" stroke="#D1D1D1" stroke-width="0.5978" fill="none" /><path id="795" transform="matrix(1 0 0 -1 0 841)" d="M166.315 455.498L168.694 455.498" stroke="#D1D1D1" stroke-width="0.5978" fill="none" /><path id="796" transform="matrix(1 0 0 -1 0 841)" d="M171.073 455.498L173.452 455.498" stroke="#D1D1D1" stroke-width="0.5978" fill="none" /><path id="797" transform="matrix(1 0 0 -1 0 841)" d="M175.83 455.498L178.209 455.498" stroke="#D1D1D1" stroke-width="0.5978" fill="none" /><path id="798" transform="matrix(1 0 0 -1 0 841)" d="M180.588 455.498L182.967 455.498" stroke="#D1D1D1" stroke-width="0.5978" fill="none" /><path id="799" transform="matrix(1 0 0 -1 0 841)" d="M185.346 455.498L187.724 455.498" stroke="#D1D1D1" stroke-width="0.5978" fill="none" /><path id="800" transform="matrix(1 0 0 -1 0 841)" d="M190.103 455.498L192.482 455.498" stroke="#D1D1D1" stroke-width="0.5978" fill="none" /><path id="801" transform="matrix(1 0 0 -1 0 841)" d="M194.861 455.498L197.239 455.498" stroke="#D1D1D1" stroke-width="0.5978" fill="none" /><path id="802" transform="matrix(1 0 0 -1 0 841)" d="M199.618 455.498L201.997 455.498" stroke="#D1D1D1" stroke-width="0.5978" fill="none" /><path id="803" transform="matrix(1 0 0 -1 0 841)" d="M204.376 455.498L206.755 455.498" stroke="#D1D1D1" stroke-width="0.5978" fill="none" /><path id="804" transform="matrix(1 0 0 -1 0 841)" d="M209.133 455.498L211.512 455.498" stroke="#D1D1D1" stroke-width="0.5978" fill="none" /><path id="805" transform="matrix(1 0 0 -1 0 841)" d="M213.891 455.498L216.27 455.498" stroke="#D1D1D1" stroke-width="0.5978" fill="none" /><path id="806" transform="matrix(1 0 0 -1 0 841)" d="M218.648 455.498L221.027 455.498" stroke="#D1D1D1" stroke-width="0.5978" fill="none" /><path id="807" transform="matrix(1 0 0 -1 0 841)" d="M223.406 455.498L225.785 455.498" stroke="#D1D1D1" stroke-width="0.5978" fill="none" /><path id="808" transform="matrix(1 0 0 -1 0 841)" d="M228.164 455.498L230.542 455.498" stroke="#D1D1D1" stroke-width="0.5978" fill="none" /><path id="809" transform="matrix(1 0 0 -1 0 841)" d="M232.921 455.498L235.3 455.498" stroke="#D1D1D1" stroke-width="0.5978" fill="none" /><path id="810" transform="matrix(1 0 0 -1 0 841)" d="M237.679 455.498L240.057 455.498" stroke="#D1D1D1" stroke-width="0.5978" fill="none" /><path id="811" transform="matrix(1 0 0 -1 0 841)" d="M242.436 455.498L244.815 455.498" stroke="#D1D1D1" stroke-width="0.5978" fill="none" /><path id="812" transform="matrix(1 0 0 -1 0 841)" d="M247.194 455.498L249.573 455.498" stroke="#D1D1D1" stroke-width="0.5978" fill="none" /><path id="813" transform="matrix(1 0 0 -1 0 841)" d="M251.951 455.498L254.33 455.498" stroke="#D1D1D1" stroke-width="0.5978" fill="none" /><path id="814" transform="matrix(1 0 0 -1 0 841)" d="M256.709 455.498L259.088 455.498" stroke="#D1D1D1" stroke-width="0.5978" fill="none" /><path id="815" transform="matrix(1 0 0 -1 0 841)" d="M261.466 455.498L263.845 455.498" stroke="#D1D1D1" stroke-width="0.5978" fill="none" /><path id="816" transform="matrix(1 0 0 -1 0 841)" d="M266.224 455.498L268.603 455.498" stroke="#D1D1D1" stroke-width="0.5978" fill="none" /><path id="817" transform="matrix(1 0 0 -1 0 841)" d="M270.981 455.498L273.36 455.498" stroke="#D1D1D1" stroke-width="0.5978" fill="none" /><path id="818" transform="matrix(1 0 0 -1 0 841)" d="M275.739 455.498L278.118 455.498" stroke="#D1D1D1" stroke-width="0.5978" fill="none" /><path id="819" transform="matrix(1 0 0 -1 0 841)" d="M280.497 455.498L282.875 455.498" stroke="#D1D1D1" stroke-width="0.5978" fill="none" /><path id="820" transform="matrix(1 0 0 -1 0 841)" d="M285.254 455.498L287.633 455.498" stroke="#D1D1D1" stroke-width="0.5978" fill="none" /><path id="821" transform="matrix(1 0 0 -1 0 841)" d="M290.012 455.498L292.39 455.498" stroke="#D1D1D1" stroke-width="0.5978" fill="none" /><path id="822" transform="matrix(1 0 0 -1 0 841)" d="M294.769 455.498L297.148 455.498" stroke="#D1D1D1" stroke-width="0.5978" fill="none" /><path id="823" transform="matrix(1 0 0 -1 0 841)" d="M299.527 455.498L301.906 455.498" stroke="#D1D1D1" stroke-width="0.5978" fill="none" /><path id="824" transform="matrix(1 0 0 -1 0 841)" d="M304.284 455.498L306.663 455.498" stroke="#D1D1D1" stroke-width="0.5978" fill="none" /><path id="825" transform="matrix(1 0 0 -1 0 841)" d="M309.042 455.498L311.421 455.498" stroke="#D1D1D1" stroke-width="0.5978" fill="none" /><path id="826" transform="matrix(1 0 0 -1 0 841)" d="M313.799 455.498L316.178 455.498" stroke="#D1D1D1" stroke-width="0.5978" fill="none" /><path id="827" transform="matrix(1 0 0 -1 0 841)" d="M318.557 455.498L320.936 455.498" stroke="#D1D1D1" stroke-width="0.5978" fill="none" /><path id="828" transform="matrix(1 0 0 -1 0 841)" d="M323.315 455.498L325.693 455.498" stroke="#D1D1D1" stroke-width="0.5978" fill="none" /><path id="829" transform="matrix(1 0 0 -1 0 841)" d="M328.072 455.498L330.451 455.498" stroke="#D1D1D1" stroke-width="0.5978" fill="none" /><path id="830" transform="matrix(1 0 0 -1 0 841)" d="M332.83 455.498L335.208 455.498" stroke="#D1D1D1" stroke-width="0.5978" fill="none" /></g></g></svg>